<svg width="1110" height="1120" viewBox="0 0 1110 1120" fill="none" xmlns="http://www.w3.org/2000/svg">
    <path d="M413.167 31V8.92H427.567V11.352H415.855V19.16H426.607V21.592H415.855V31H413.167ZM431.417 31V8.92H441.881C445.145 8.92 446.777 10.552 446.777 13.816V17.336C446.777 20.1093 445.593 21.7093 443.225 22.136L447.417 30.36L447.065 31H444.793L440.345 22.232H434.105V31H431.417ZM434.105 19.8H441.913C443.363 19.8 444.089 19.0747 444.089 17.624V13.528C444.089 12.0773 443.363 11.352 441.913 11.352H434.105V19.8ZM449.646 30.424L456.878 8.92H461.294L468.526 30.424L468.142 31H465.934L464.11 25.432H454.062L452.238 31H450.03L449.646 30.424ZM454.862 23H463.31L459.47 11.352H458.702L454.862 23ZM472.042 31V8.92H474.73V20.248L484.874 8.92H487.338L487.626 9.528L480.01 18.008L488.362 30.392L488.074 31H485.61L478.25 19.96L474.73 23.832V31H472.042ZM490.086 11.352V8.92H507.494V11.352H500.134V31H497.446V11.352H490.086ZM518.823 31V8.92H533.223V11.352H521.511V18.2H532.263V20.632H521.511V28.568H533.223V31H518.823ZM537.378 26.104V13.816C537.378 10.552 539.01 8.92 542.274 8.92H551.298L552.738 10.04V11.352H542.242C540.791 11.352 540.066 12.0773 540.066 13.528V26.392C540.066 27.8427 540.791 28.568 542.242 28.568H552.738V29.88L551.298 31H542.274C539.01 31 537.378 29.368 537.378 26.104ZM556.909 26.104V13.816C556.909 10.552 558.541 8.92 561.805 8.92H569.293C572.557 8.92 574.189 10.552 574.189 13.816V26.104C574.189 29.368 572.557 31 569.293 31H561.805C558.541 31 556.909 29.368 556.909 26.104ZM559.597 26.392C559.597 27.8427 560.323 28.568 561.773 28.568H569.325C570.776 28.568 571.501 27.8427 571.501 26.392V13.528C571.501 12.0773 570.776 11.352 569.325 11.352H561.773C560.323 11.352 559.597 12.0773 559.597 13.528V26.392ZM578.676 29.88V28.568H588.532C589.982 28.568 590.708 27.8427 590.708 26.392V23.768C590.708 22.552 590.164 21.8373 589.076 21.624L582.196 20.248C579.849 19.7787 578.676 18.2 578.676 15.512V13.816C578.676 10.552 580.308 8.92 583.572 8.92H591.316L592.756 10.04V11.352H583.54C582.089 11.352 581.364 12.0773 581.364 13.528V15.704C581.364 16.92 581.908 17.6347 582.996 17.848L589.876 19.224C592.222 19.6933 593.396 21.272 593.396 23.96V26.104C593.396 29.368 591.764 31 588.5 31H580.116L578.676 29.88ZM595.958 9.496L596.31 8.92H598.582L604.598 20.088L610.614 8.92H612.886L613.238 9.496L605.942 22.808V31H603.254V22.808L595.958 9.496ZM615.801 29.88V28.568H625.657C627.107 28.568 627.833 27.8427 627.833 26.392V23.768C627.833 22.552 627.289 21.8373 626.201 21.624L619.321 20.248C616.974 19.7787 615.801 18.2 615.801 15.512V13.816C615.801 10.552 617.433 8.92 620.697 8.92H628.441L629.881 10.04V11.352H620.665C619.214 11.352 618.489 12.0773 618.489 13.528V15.704C618.489 16.92 619.033 17.6347 620.121 17.848L627.001 19.224C629.347 19.6933 630.521 21.272 630.521 23.96V26.104C630.521 29.368 628.889 31 625.625 31H617.241L615.801 29.88ZM633.211 11.352V8.92H650.619V11.352H643.259V31H640.571V11.352H633.211ZM654.261 31V8.92H668.661V11.352H656.949V18.2H667.701V20.632H656.949V28.568H668.661V31H654.261ZM673.136 31V8.92H676.688L684.176 24.856L691.664 8.92H695.216V31H692.528V12.952L685.552 27.8H682.8L675.824 12.952V31H673.136Z" fill="white"/>
    <rect x="62.7697" y="74.7909" width="990.999" height="1044.26" fill="black" stroke="white" stroke-width="1.90211"/>
    <path d="M539.525 495.808V486.148H544.089C545.657 486.148 546.441 486.932 546.441 488.5V489.34C546.441 489.657 546.348 489.928 546.161 490.152L545.671 490.74L546.259 491.23C546.567 491.482 546.721 491.855 546.721 492.35V493.456C546.721 495.024 545.937 495.808 544.369 495.808H539.525ZM541.541 493.988H544.285C544.565 493.988 544.705 493.848 544.705 493.568V492.168C544.705 491.888 544.565 491.748 544.285 491.748H541.541V493.988ZM541.541 489.928H544.005C544.285 489.928 544.425 489.788 544.425 489.508V488.388C544.425 488.108 544.285 487.968 544.005 487.968H541.541V489.928ZM548.602 493.54V488.416H550.534V493.68C550.534 493.979 550.684 494.128 550.982 494.128H553.026V488.416H554.958V495.808H550.87C549.358 495.808 548.602 495.052 548.602 493.54ZM556.355 488.71L556.551 488.416H558.217L559.925 494.128H560.065L561.773 488.416H563.439L563.635 488.71L560.541 498.608H558.875L558.679 498.314L559.519 495.808H558.581L556.355 488.71ZM568.673 495.808V486.148H575.281V487.968H570.689V490.348H574.861V492.168H570.689V495.808H568.673ZM576.989 495.808V486.148H581.693C583.261 486.148 584.045 486.932 584.045 488.5V490.096C584.045 491.263 583.611 491.995 582.743 492.294L584.325 495.388L584.087 495.808H582.351L580.643 492.448H579.005V495.808H576.989ZM579.005 490.628H581.609C581.889 490.628 582.029 490.488 582.029 490.208V488.388C582.029 488.108 581.889 487.968 581.609 487.968H579.005V490.628ZM585.311 495.43L588.181 486.148H591.261L594.131 495.43L593.879 495.808H592.199L591.611 493.848H587.831L587.243 495.808H585.563L585.311 495.43ZM588.377 492.028H591.065L589.833 487.968H589.609L588.377 492.028ZM595.531 493.456V488.5C595.531 486.932 596.315 486.148 597.883 486.148H601.621L602.559 486.876V487.968H597.967C597.687 487.968 597.547 488.108 597.547 488.388V493.568C597.547 493.848 597.687 493.988 597.967 493.988H602.559V495.08L601.621 495.808H597.883C596.315 495.808 595.531 495.024 595.531 493.456ZM603.736 487.968V486.148H611.632V487.968H608.692V495.808H606.676V487.968H603.736ZM613.26 495.808V486.148H615.276V495.808H613.26ZM617.567 493.456V488.5C617.567 486.932 618.351 486.148 619.919 486.148H623.111C624.679 486.148 625.463 486.932 625.463 488.5V493.456C625.463 495.024 624.679 495.808 623.111 495.808H619.919C618.351 495.808 617.567 495.024 617.567 493.456ZM619.583 493.568C619.583 493.848 619.723 493.988 620.003 493.988H623.027C623.307 493.988 623.447 493.848 623.447 493.568V488.388C623.447 488.108 623.307 487.968 623.027 487.968H620.003C619.723 487.968 619.583 488.108 619.583 488.388V493.568ZM627.759 495.808V486.148H629.943L633.779 492.49V486.148H635.795V495.808H633.611L629.775 489.466V495.808H627.759ZM637.815 495.08V493.988H642.155C642.435 493.988 642.575 493.848 642.575 493.568V492.546C642.575 492.285 642.458 492.131 642.225 492.084L639.495 491.538C638.375 491.314 637.815 490.563 637.815 489.284V488.5C637.815 486.932 638.599 486.148 640.167 486.148H643.373L644.311 486.876V487.968H640.251C639.971 487.968 639.831 488.108 639.831 488.388V489.298C639.831 489.559 639.947 489.713 640.181 489.76L642.911 490.306C644.031 490.53 644.591 491.281 644.591 492.56V493.456C644.591 495.024 643.807 495.808 642.239 495.808H638.753L637.815 495.08ZM649.828 493.54V492.336C649.828 491.851 649.982 491.477 650.29 491.216L650.878 490.726L650.388 490.138C650.202 489.914 650.108 489.643 650.108 489.326V488.416C650.108 486.904 650.864 486.148 652.376 486.148H654.924L655.764 486.778V487.828H652.488C652.19 487.828 652.04 487.977 652.04 488.276V489.48C652.04 489.779 652.19 489.928 652.488 489.928H657.864V491.608H656.464V495.808H652.096C650.584 495.808 649.828 495.052 649.828 493.54ZM651.76 493.68C651.76 493.979 651.91 494.128 652.208 494.128H654.532V491.608H652.208C651.91 491.608 651.76 491.757 651.76 492.056V493.68ZM553.429 512.808V503.148H557.097C559.729 503.148 561.045 504.464 561.045 507.096V508.86C561.045 511.492 559.729 512.808 557.097 512.808H553.429ZM555.445 510.988H557.209C558.423 510.988 559.029 510.381 559.029 509.168V506.788C559.029 505.575 558.423 504.968 557.209 504.968H555.445V510.988ZM563.208 512.808V503.148H569.816V504.968H565.224V506.928H569.396V508.748H565.224V510.988H569.816V512.808H563.208ZM571.797 512.808V503.148H576.501C578.069 503.148 578.853 503.932 578.853 505.5V507.096C578.853 508.263 578.419 508.995 577.551 509.294L579.133 512.388L578.895 512.808H577.159L575.451 509.448H573.813V512.808H571.797ZM573.813 507.628H576.417C576.697 507.628 576.837 507.488 576.837 507.208V505.388C576.837 505.108 576.697 504.968 576.417 504.968H573.813V507.628ZM581.015 512.808V503.148H583.031V512.808H581.015ZM584.566 503.526L584.818 503.148H586.582L588.794 510.988H589.018L591.23 503.148H592.994L593.246 503.526L590.502 512.808H587.31L584.566 503.526ZM593.333 512.43L596.203 503.148H599.283L602.153 512.43L601.901 512.808H600.221L599.633 510.848H595.853L595.265 512.808H593.585L593.333 512.43ZM596.399 509.028H599.087L597.855 504.968H597.631L596.399 509.028ZM602.184 504.968V503.148H610.08V504.968H607.14V512.808H605.124V504.968H602.184ZM611.708 512.808V503.148H613.724V512.808H611.708ZM615.259 503.526L615.511 503.148H617.275L619.487 510.988H619.711L621.923 503.148H623.687L623.939 503.526L621.195 512.808H618.003L615.259 503.526ZM625.482 512.808V503.148H632.09V504.968H627.498V506.928H631.67V508.748H627.498V510.988H632.09V512.808H625.482ZM633.652 512.08V510.988H637.992C638.272 510.988 638.412 510.848 638.412 510.568V509.546C638.412 509.285 638.295 509.131 638.062 509.084L635.332 508.538C634.212 508.314 633.652 507.563 633.652 506.284V505.5C633.652 503.932 634.436 503.148 636.004 503.148H639.21L640.148 503.876V504.968H636.088C635.808 504.968 635.668 505.108 635.668 505.388V506.298C635.668 506.559 635.784 506.713 636.018 506.76L638.748 507.306C639.868 507.53 640.428 508.281 640.428 509.56V510.456C640.428 512.024 639.644 512.808 638.076 512.808H634.59L633.652 512.08ZM552.369 527.708V524.628C552.369 523.228 553.069 522.528 554.469 522.528H556.429C557.829 522.528 558.529 523.228 558.529 524.628V527.708C558.529 529.108 557.829 529.808 556.429 529.808H554.469C553.069 529.808 552.369 529.108 552.369 527.708ZM553.489 527.848C553.489 528.501 553.815 528.828 554.469 528.828H556.429C557.082 528.828 557.409 528.501 557.409 527.848V524.488C557.409 523.835 557.082 523.508 556.429 523.508H554.469C553.815 523.508 553.489 523.835 553.489 524.488V527.848ZM560.796 529.808V522.528H564.716C566.116 522.528 566.816 523.228 566.816 524.628V529.808H565.696V524.488C565.696 523.835 565.37 523.508 564.716 523.508H561.916V529.808H560.796ZM572.643 529.808V521.548C572.643 520.148 573.343 519.448 574.743 519.448H576.003L576.563 519.868V520.428H574.743C574.089 520.428 573.763 520.755 573.763 521.408V522.528H576.423V523.508H573.763V529.808H572.643ZM578.045 529.808V523.368C578.372 522.808 578.978 522.528 579.865 522.528H581.265L581.825 522.948V523.508H579.865C579.548 523.508 579.314 523.592 579.165 523.76V529.808H578.045ZM585.035 529.808C583.626 529.808 582.921 529.103 582.921 527.694C582.921 526.285 583.626 525.58 585.035 525.58H587.597V524.488C587.597 523.835 587.271 523.508 586.617 523.508H583.621V522.948L584.181 522.528H586.617C588.017 522.528 588.717 523.228 588.717 524.628V529.808H585.035ZM584.041 527.848C584.041 528.501 584.368 528.828 585.021 528.828H587.597V526.56H585.021C584.368 526.56 584.041 526.887 584.041 527.54V527.848ZM591.041 529.808V519.448H592.161V526.238L595.535 522.528H596.627L596.725 522.738L594.121 525.58L596.921 529.598L596.823 529.808H595.731L593.379 526.392L592.161 527.708V529.808H591.041ZM598.522 527.708V520.148H599.642V522.528H602.302V523.508H599.642V527.848C599.642 528.501 599.968 528.828 600.622 528.828H602.442V529.388L601.882 529.808H600.622C599.222 529.808 598.522 529.108 598.522 527.708ZM604.172 521.212V519.924H605.348V521.212H604.172ZM604.2 529.808V522.528H605.32V529.808H604.2ZM607.591 527.708V524.628C607.591 523.228 608.291 522.528 609.691 522.528H611.651C613.051 522.528 613.751 523.228 613.751 524.628V527.708C613.751 529.108 613.051 529.808 611.651 529.808H609.691C608.291 529.808 607.591 529.108 607.591 527.708ZM608.711 527.848C608.711 528.501 609.038 528.828 609.691 528.828H611.651C612.305 528.828 612.631 528.501 612.631 527.848V524.488C612.631 523.835 612.305 523.508 611.651 523.508H609.691C609.038 523.508 608.711 523.835 608.711 524.488V527.848ZM616.019 529.808V522.528H619.939C621.339 522.528 622.039 523.228 622.039 524.628V529.808H620.919V524.488C620.919 523.835 620.593 523.508 619.939 523.508H617.139V529.808H616.019ZM624.362 529.808V528.268H625.762V529.808H624.362ZM629.861 529.808C628.452 529.808 627.747 529.103 627.747 527.694C627.747 526.285 628.452 525.58 629.861 525.58H632.423V524.488C632.423 523.835 632.096 523.508 631.443 523.508H628.447V522.948L629.007 522.528H631.443C632.843 522.528 633.543 523.228 633.543 524.628V529.808H629.861ZM628.867 527.848C628.867 528.501 629.194 528.828 629.847 528.828H632.423V526.56H629.847C629.194 526.56 628.867 526.887 628.867 527.54V527.848ZM635.811 529.808V523.368C636.138 522.808 636.744 522.528 637.631 522.528H639.031L639.591 522.948V523.508H637.631C637.314 523.508 637.08 523.592 636.931 523.76V529.808H635.811ZM641.16 527.708V520.148H642.28V522.528H644.94V523.508H642.28V527.848C642.28 528.501 642.607 528.828 643.26 528.828H645.08V529.388L644.52 529.808H643.26C641.86 529.808 641.16 529.108 641.16 527.708Z" fill="white"/>
    <rect x="488.271" y="475.988" width="220.397" height="64.599" stroke="white" stroke-width="0.759988"/>
    <path d="M544.018 362.365V352.705H546.034V360.545H550.206V362.365H544.018ZM551.828 362.365V352.705H556.532C558.1 352.705 558.884 353.489 558.884 355.057V356.933C558.884 358.501 558.1 359.285 556.532 359.285H553.844V362.365H551.828ZM553.844 357.465H556.448C556.728 357.465 556.868 357.325 556.868 357.045V354.945C556.868 354.665 556.728 354.525 556.448 354.525H553.844V357.465ZM564.049 361.637V360.545H568.109C568.389 360.545 568.529 360.405 568.529 360.125V359.313C568.529 359.051 568.413 358.897 568.179 358.851L565.729 358.361C564.609 358.137 564.049 357.385 564.049 356.107V355.477C564.049 353.909 564.833 353.125 566.401 353.125H566.457V351.445H568.137V353.125H569.327L570.265 353.853V354.945H566.485C566.205 354.945 566.065 355.085 566.065 355.365V356.121C566.065 356.382 566.182 356.536 566.415 356.583L568.865 357.073C569.985 357.297 570.545 358.048 570.545 359.327V360.013C570.545 361.581 569.761 362.365 568.193 362.365H568.137V364.045H566.457V362.365H564.987L564.049 361.637ZM572.633 362.365V352.705H579.241V354.525H574.649V356.905H578.821V358.725H574.649V362.365H572.633ZM580.949 362.365V352.705H585.653C587.221 352.705 588.005 353.489 588.005 355.057V356.653C588.005 357.819 587.571 358.552 586.703 358.851L588.285 361.945L588.047 362.365H586.311L584.603 359.005H582.965V362.365H580.949ZM582.965 357.185H585.569C585.849 357.185 585.989 357.045 585.989 356.765V354.945C585.989 354.665 585.849 354.525 585.569 354.525H582.965V357.185ZM590.167 362.365V352.705H592.183V356.527L595.599 352.705H597.489L597.685 353.111L594.479 356.681L598.035 361.959L597.839 362.365H595.991L593.177 358.137L592.183 359.215V362.365H590.167ZM598.901 354.525V352.705H606.797V354.525H603.857V362.365H601.841V354.525H598.901ZM611.341 358.921V357.269H615.541V358.921H611.341ZM620.54 361.637V360.545H624.6C624.88 360.545 625.02 360.405 625.02 360.125V359.313C625.02 359.051 624.904 358.897 624.67 358.851L622.22 358.361C621.1 358.137 620.54 357.385 620.54 356.107V355.477C620.54 353.909 621.324 353.125 622.892 353.125H622.948V351.445H624.628V353.125H625.818L626.756 353.853V354.945H622.976C622.696 354.945 622.556 355.085 622.556 355.365V356.121C622.556 356.382 622.673 356.536 622.906 356.583L625.356 357.073C626.476 357.297 627.036 358.048 627.036 359.327V360.013C627.036 361.581 626.252 362.365 624.684 362.365H624.628V364.045H622.948V362.365H621.478L620.54 361.637ZM628.704 361.637V360.545H633.044C633.324 360.545 633.464 360.405 633.464 360.125V359.103C633.464 358.841 633.348 358.687 633.114 358.641L630.384 358.095C629.264 357.871 628.704 357.119 628.704 355.841V355.057C628.704 353.489 629.488 352.705 631.056 352.705H634.262L635.2 353.433V354.525H631.14C630.86 354.525 630.72 354.665 630.72 354.945V355.855C630.72 356.116 630.837 356.27 631.07 356.317L633.8 356.863C634.92 357.087 635.48 357.838 635.48 359.117V360.013C635.48 361.581 634.696 362.365 633.128 362.365H629.642L628.704 361.637ZM637.355 360.013V355.057C637.355 353.489 638.139 352.705 639.707 352.705H642.899C644.467 352.705 645.251 353.489 645.251 355.057V360.013C645.251 361.581 644.467 362.365 642.899 362.365H639.707C638.139 362.365 637.355 361.581 637.355 360.013ZM639.371 360.125C639.371 360.405 639.511 360.545 639.791 360.545H642.815C643.095 360.545 643.235 360.405 643.235 360.125V354.945C643.235 354.665 643.095 354.525 642.815 354.525H639.791C639.511 354.525 639.371 354.665 639.371 354.945V360.125ZM647.547 362.365V352.705H649.563V360.545H653.735V362.365H647.547ZM560.935 377.265V374.185C560.935 372.785 561.635 372.085 563.035 372.085H564.995C566.395 372.085 567.095 372.785 567.095 374.185V377.265C567.095 378.665 566.395 379.365 564.995 379.365H563.035C561.635 379.365 560.935 378.665 560.935 377.265ZM562.055 377.405C562.055 378.058 562.382 378.385 563.035 378.385H564.995C565.649 378.385 565.975 378.058 565.975 377.405V374.045C565.975 373.391 565.649 373.065 564.995 373.065H563.035C562.382 373.065 562.055 373.391 562.055 374.045V377.405ZM569.363 379.365V372.085H573.283C574.683 372.085 575.383 372.785 575.383 374.185V379.365H574.263V374.045C574.263 373.391 573.937 373.065 573.283 373.065H570.483V379.365H569.363ZM581.35 379.365V369.705H585.928C587.356 369.705 588.07 370.419 588.07 371.847V373.387C588.07 374.6 587.552 375.3 586.516 375.487L588.35 379.085L588.196 379.365H587.202L585.256 375.529H582.526V379.365H581.35ZM582.526 374.465H585.942C586.576 374.465 586.894 374.147 586.894 373.513V371.721C586.894 371.086 586.576 370.769 585.942 370.769H582.526V374.465ZM592.027 379.365C590.617 379.365 589.913 378.66 589.913 377.251C589.913 375.841 590.617 375.137 592.027 375.137H594.589V374.045C594.589 373.391 594.262 373.065 593.609 373.065H590.613V372.505L591.173 372.085H593.609C595.009 372.085 595.709 372.785 595.709 374.185V379.365H592.027ZM591.033 377.405C591.033 378.058 591.359 378.385 592.013 378.385H594.589V376.117H592.013C591.359 376.117 591.033 376.443 591.033 377.097V377.405ZM597.193 372.281L597.319 372.085H598.285L600.413 378.385H600.693L602.821 372.085H603.787L603.913 372.281L600.497 382.165H599.531L599.405 381.969L600.343 379.365H599.643L597.193 372.281ZM605.334 377.265V374.185C605.334 372.785 606.034 372.085 607.434 372.085H610.234V369.005H611.354V379.365H607.434C606.034 379.365 605.334 378.665 605.334 377.265ZM606.454 377.405C606.454 378.058 606.781 378.385 607.434 378.385H610.234V373.065H607.434C606.781 373.065 606.454 373.391 606.454 374.045V377.405ZM613.706 370.769V369.481H614.882V370.769H613.706ZM613.734 379.365V372.085H614.854V379.365H613.734ZM617.182 377.265V372.085H618.302V377.405C618.302 378.058 618.628 378.385 619.282 378.385H622.082V372.085H623.202V379.365H619.282C617.882 379.365 617.182 378.665 617.182 377.265ZM625.581 379.365V372.085H633.841C635.241 372.085 635.941 372.785 635.941 374.185V379.365H634.821V374.045C634.821 373.391 634.494 373.065 633.841 373.065H631.321V379.365H630.201V373.065H626.701V379.365H625.581Z" fill="white"/>
    <rect x="488.271" y="334.545" width="220.397" height="64.599" stroke="white" stroke-width="0.759988"/>
    <path d="M273.911 583.291V573.631H280.519V575.451H275.927V577.411H280.099V579.231H275.927V581.471H280.519V583.291H273.911ZM281.605 582.913L284.475 573.631H287.555L290.425 582.913L290.173 583.291H288.493L287.905 581.331H284.125L283.537 583.291H281.857L281.605 582.913ZM284.671 579.511H287.359L286.127 575.451H285.903L284.671 579.511ZM291.965 583.291V573.631H296.669C298.237 573.631 299.021 574.415 299.021 575.983V577.579C299.021 578.745 298.587 579.478 297.719 579.777L299.301 582.871L299.063 583.291H297.327L295.619 579.931H293.981V583.291H291.965ZM293.981 578.111H296.585C296.865 578.111 297.005 577.971 297.005 577.691V575.871C297.005 575.591 296.865 575.451 296.585 575.451H293.981V578.111ZM301.183 583.291V573.631H303.367L307.203 579.973V573.631H309.219V583.291H307.035L303.199 576.949V583.291H301.183ZM317.164 586.091C315.662 584.056 314.91 581.769 314.91 579.231C314.91 576.692 315.662 574.405 317.164 572.371L318.634 573.477C317.449 575.166 316.856 577.084 316.856 579.231C316.856 581.377 317.449 583.295 318.634 584.985L317.164 586.091ZM320.169 583.291V573.631H322.577L325.307 579.469L328.037 573.631H330.445V583.291H328.429V577.187L326.161 582.031H324.453L322.185 577.187V583.291H320.169ZM332.748 580.939V575.983C332.748 574.415 333.532 573.631 335.1 573.631H338.292C339.86 573.631 340.644 574.415 340.644 575.983V580.939C340.644 582.507 339.86 583.291 338.292 583.291H335.1C333.532 583.291 332.748 582.507 332.748 580.939ZM334.764 581.051C334.764 581.331 334.904 581.471 335.184 581.471H338.208C338.488 581.471 338.628 581.331 338.628 581.051V575.871C338.628 575.591 338.488 575.451 338.208 575.451H335.184C334.904 575.451 334.764 575.591 334.764 575.871V581.051ZM342.94 583.291V573.631H347.644C349.212 573.631 349.996 574.415 349.996 575.983V577.579C349.996 578.745 349.562 579.478 348.694 579.777L350.276 582.871L350.038 583.291H348.302L346.594 579.931H344.956V583.291H342.94ZM344.956 578.111H347.56C347.84 578.111 347.98 577.971 347.98 577.691V575.871C347.98 575.591 347.84 575.451 347.56 575.451H344.956V578.111ZM352.158 583.291V573.631H358.766V575.451H354.174V577.411H358.346V579.231H354.174V581.471H358.766V583.291H352.158ZM359.851 584.985C361.036 583.295 361.629 581.377 361.629 579.231C361.629 577.084 361.036 575.166 359.851 573.477L361.321 572.371C362.824 574.405 363.575 576.692 363.575 579.231C363.575 581.769 362.824 584.056 361.321 586.091L359.851 584.985ZM368.907 582.563V581.471H372.967C373.247 581.471 373.387 581.331 373.387 581.051V580.239C373.387 579.977 373.271 579.823 373.037 579.777L370.587 579.287C369.467 579.063 368.907 578.311 368.907 577.033V576.403C368.907 574.835 369.691 574.051 371.259 574.051H371.315V572.371H372.995V574.051H374.185L375.123 574.779V575.871H371.343C371.063 575.871 370.923 576.011 370.923 576.291V577.047C370.923 577.308 371.04 577.462 371.273 577.509L373.723 577.999C374.843 578.223 375.403 578.974 375.403 580.253V580.939C375.403 582.507 374.619 583.291 373.051 583.291H372.995V584.971H371.315V583.291H369.845L368.907 582.563ZM377.491 583.291V573.631H384.099V575.451H379.507V577.831H383.679V579.651H379.507V583.291H377.491ZM385.807 583.291V573.631H390.511C392.079 573.631 392.863 574.415 392.863 575.983V577.579C392.863 578.745 392.429 579.478 391.561 579.777L393.143 582.871L392.905 583.291H391.169L389.461 579.931H387.823V583.291H385.807ZM387.823 578.111H390.427C390.707 578.111 390.847 577.971 390.847 577.691V575.871C390.847 575.591 390.707 575.451 390.427 575.451H387.823V578.111ZM395.025 583.291V573.631H397.041V577.453L400.457 573.631H402.347L402.543 574.037L399.337 577.607L402.893 582.885L402.697 583.291H400.849L398.035 579.063L397.041 580.141V583.291H395.025ZM403.759 575.451V573.631H411.655V575.451H408.715V583.291H406.699V575.451H403.759Z" fill="white"/>
    <rect x="233.388" y="545.943" width="217.983" height="65.8139" stroke="white" stroke-width="0.759988"/>
    <path d="M383.75 616.892L386.02 612.137H380.529L382.799 616.892H383.75ZM383.275 653.983H382.799V654.459H383.275V653.983ZM487.891 653.983L483.136 651.238V656.729L487.891 653.983ZM382.799 616.416V653.983H383.75V616.416H382.799ZM383.275 654.459H483.611V653.508H383.275V654.459Z" fill="white"/>
    <path d="M383.751 541.758L386.02 546.514H380.53L382.799 541.758H383.751ZM383.275 504.667H382.799V504.192H383.275V504.667ZM487.891 504.667L483.136 507.413V501.922L487.891 504.667ZM382.799 542.234V504.667H383.751V542.234H382.799ZM383.275 504.192H483.611V505.143H383.275V504.192Z" fill="white"/>
    <path d="M354.743 546.514L351.998 541.758H357.489L354.743 546.514ZM354.743 368.666H354.268V368.191H354.743V368.666ZM487.891 368.666L483.136 371.412V365.921L487.891 368.666ZM354.268 542.234V368.666H355.219V542.234H354.268ZM354.743 368.191H483.611V369.142H354.743V368.191Z" fill="white"/>
    <path d="M354.743 612.137L351.998 616.892H357.489L354.743 612.137ZM354.743 896.502H354.268V896.978H354.743V896.502ZM490.744 896.502L485.989 893.757V899.248L490.744 896.502ZM354.268 616.416V896.502H355.219V616.416H354.268ZM354.743 896.978H486.465V896.027H354.743V896.978Z" fill="white"/>
    <path d="M326.687 541.758L328.957 546.514L323.466 546.514L325.736 541.758H326.687ZM326.212 221.253H325.736V220.777H326.212V221.253ZM487.891 221.253L483.136 223.998V218.507L487.891 221.253ZM325.736 542.234V221.253H326.687V542.234H325.736ZM326.212 220.777H483.611V221.728H326.212V220.777Z" fill="white"/>
    <path d="M555.069 212.921V203.261H557.477L560.207 209.099L562.937 203.261H565.345V212.921H563.329V206.817L561.061 211.661H559.353L557.085 206.817V212.921H555.069ZM567.619 204.325V202.449H569.607V204.325H567.619ZM567.647 212.921V205.529H569.579V212.921H567.647ZM571.738 212.921V205.529H575.826C577.338 205.529 578.094 206.285 578.094 207.797V212.921H576.162V207.657C576.162 207.358 576.013 207.209 575.714 207.209H573.67V212.921H571.738ZM580.134 210.653V203.261H582.066V205.529H584.474V207.209H582.066V210.793C582.066 211.092 582.216 211.241 582.514 211.241H584.614V212.291L583.774 212.921H582.402C580.89 212.921 580.134 212.165 580.134 210.653ZM589.907 212.921V203.261H591.923V207.083L595.339 203.261H597.229L597.425 203.667L594.219 207.237L597.775 212.515L597.579 212.921H595.731L592.917 208.693L591.923 209.771V212.921H589.907ZM599.257 210.653V205.529H601.189V210.793C601.189 211.092 601.339 211.241 601.637 211.241H603.681V205.529H605.613V212.921H601.525C600.013 212.921 599.257 212.165 599.257 210.653ZM607.71 212.921V206.481C608.055 205.846 608.718 205.529 609.698 205.529H611.21L612.05 206.159V207.209H610.16C609.908 207.209 609.735 207.27 609.642 207.391V212.921H607.71ZM615.305 212.921C613.793 212.921 613.037 212.179 613.037 210.695C613.037 209.211 613.793 208.469 615.305 208.469H617.237V207.657C617.237 207.358 617.088 207.209 616.789 207.209H613.821V206.159L614.661 205.529H616.901C618.413 205.529 619.169 206.285 619.169 207.797V212.921H615.305ZM614.969 210.793C614.969 211.092 615.119 211.241 615.417 211.241H617.237V209.981H615.417C615.119 209.981 614.969 210.13 614.969 210.429V210.793ZM621.211 210.653V203.261H623.143V205.529H625.551V207.209H623.143V210.793C623.143 211.092 623.292 211.241 623.591 211.241H625.691V212.291L624.851 212.921H623.479C621.967 212.921 621.211 212.165 621.211 210.653ZM627.228 210.653V207.797C627.228 206.285 627.984 205.529 629.496 205.529H631.316C632.828 205.529 633.584 206.285 633.584 207.797V209.953H629.16V210.793C629.16 211.092 629.31 211.241 629.608 211.241H633.304V212.291L632.464 212.921H629.496C627.984 212.921 627.228 212.165 627.228 210.653ZM629.16 208.441H631.652V207.657C631.652 207.358 631.503 207.209 631.204 207.209H629.608C629.31 207.209 629.16 207.358 629.16 207.657V208.441ZM635.517 210.653V207.797C635.517 206.285 636.273 205.529 637.785 205.529H639.941V202.561H641.873V212.921H637.785C636.273 212.921 635.517 212.165 635.517 210.653ZM637.449 210.793C637.449 211.092 637.598 211.241 637.897 211.241H639.941V207.209H637.897C637.598 207.209 637.449 207.358 637.449 207.657V210.793ZM562.073 227.653V224.797C562.073 223.285 562.829 222.529 564.341 222.529H566.945L567.785 223.159V224.209H564.453C564.154 224.209 564.005 224.358 564.005 224.657V227.793C564.005 228.092 564.154 228.241 564.453 228.241H567.785V229.291L566.945 229.921H564.341C562.829 229.921 562.073 229.165 562.073 227.653ZM569.459 227.653V224.797C569.459 223.285 570.215 222.529 571.727 222.529H573.687C575.199 222.529 575.955 223.285 575.955 224.797V227.653C575.955 229.165 575.199 229.921 573.687 229.921H571.727C570.215 229.921 569.459 229.165 569.459 227.653ZM571.391 227.793C571.391 228.092 571.54 228.241 571.839 228.241H573.575C573.874 228.241 574.023 228.092 574.023 227.793V224.657C574.023 224.358 573.874 224.209 573.575 224.209H571.839C571.54 224.209 571.391 224.358 571.391 224.657V227.793ZM577.94 227.233V219.561H579.872V227.429C579.872 228.008 580.171 228.325 580.768 228.381V230.061C578.883 230.061 577.94 229.118 577.94 227.233ZM582.414 227.233V219.561H584.346V227.429C584.346 228.008 584.645 228.325 585.242 228.381V230.061C583.357 230.061 582.414 229.118 582.414 227.233ZM586.832 227.653V224.797C586.832 223.285 587.588 222.529 589.1 222.529H590.92C592.432 222.529 593.188 223.285 593.188 224.797V226.953H588.764V227.793C588.764 228.092 588.913 228.241 589.212 228.241H592.908V229.291L592.068 229.921H589.1C587.588 229.921 586.832 229.165 586.832 227.653ZM588.764 225.441H591.256V224.657C591.256 224.358 591.107 224.209 590.808 224.209H589.212C588.913 224.209 588.764 224.358 588.764 224.657V225.441ZM595.12 227.653V224.797C595.12 223.285 595.876 222.529 597.388 222.529H599.992L600.832 223.159V224.209H597.5C597.202 224.209 597.052 224.358 597.052 224.657V227.793C597.052 228.092 597.202 228.241 597.5 228.241H600.832V229.291L599.992 229.921H597.388C595.876 229.921 595.12 229.165 595.12 227.653ZM602.563 227.653V220.261H604.495V222.529H606.903V224.209H604.495V227.793C604.495 228.092 604.644 228.241 604.943 228.241H607.043V229.291L606.203 229.921H604.831C603.319 229.921 602.563 229.165 602.563 227.653ZM608.664 221.325V219.449H610.652V221.325H608.664ZM608.692 229.921V222.529H610.624V229.921H608.692ZM612.671 227.653V224.797C612.671 223.285 613.427 222.529 614.939 222.529H616.899C618.411 222.529 619.167 223.285 619.167 224.797V227.653C619.167 229.165 618.411 229.921 616.899 229.921H614.939C613.427 229.921 612.671 229.165 612.671 227.653ZM614.603 227.793C614.603 228.092 614.753 228.241 615.051 228.241H616.787C617.086 228.241 617.235 228.092 617.235 227.793V224.657C617.235 224.358 617.086 224.209 616.787 224.209H615.051C614.753 224.209 614.603 224.358 614.603 224.657V227.793ZM621.208 229.921V222.529H625.296C626.808 222.529 627.564 223.285 627.564 224.797V229.921H625.632V224.657C625.632 224.358 625.483 224.209 625.184 224.209H623.14V229.921H621.208ZM629.409 229.291V228.241H632.629C632.946 228.241 633.105 228.064 633.105 227.709C633.105 227.345 632.965 227.14 632.685 227.093L631.173 226.841C629.997 226.645 629.409 225.964 629.409 224.797C629.409 223.285 630.165 222.529 631.677 222.529H633.847L634.687 223.159V224.209H631.803C631.486 224.209 631.327 224.386 631.327 224.741C631.327 225.105 631.467 225.31 631.747 225.357L633.259 225.609C634.435 225.805 635.023 226.486 635.023 227.653C635.023 229.165 634.267 229.921 632.755 229.921H630.249L629.409 229.291ZM537.15 244.765V241.755C537.15 240.327 537.864 239.613 539.292 239.613H541.252C542.689 239.613 543.408 240.327 543.408 241.755V244.765C543.408 246.202 542.689 246.921 541.252 246.921H539.292C537.864 246.921 537.15 246.202 537.15 244.765ZM538.508 244.905C538.508 245.456 538.783 245.731 539.334 245.731H541.224C541.765 245.731 542.036 245.456 542.036 244.905V241.615C542.036 241.074 541.765 240.803 541.224 240.803H539.334C538.783 240.803 538.508 241.074 538.508 241.615V244.905ZM545.605 246.921V239.613H549.567C551.004 239.613 551.723 240.327 551.723 241.755V246.921H550.351V241.615C550.351 241.074 550.08 240.803 549.539 240.803H546.963V246.921H545.605ZM557.618 246.921V237.261H564.002V238.549H559.046V241.657H563.582V242.945H559.046V246.921H557.618ZM565.797 246.921V237.261H570.403C571.878 237.261 572.615 237.998 572.615 239.473V241.027C572.615 242.222 572.121 242.931 571.131 243.155L572.895 246.599L572.713 246.921H571.495L569.619 243.225H567.225V246.921H565.797ZM567.225 241.937H570.389C570.921 241.937 571.187 241.671 571.187 241.139V239.347C571.187 238.815 570.921 238.549 570.389 238.549H567.225V241.937ZM573.954 246.627L577.034 237.261H579.316L582.382 246.627L582.2 246.921H581.01L580.282 244.625H576.068L575.34 246.921H574.15L573.954 246.627ZM576.474 243.337H579.876L578.322 238.549H578.028L576.474 243.337ZM584.029 246.921V237.261H585.457V241.881L589.587 237.261H590.903L591.057 237.569L587.753 241.237L591.379 246.613L591.239 246.921H589.923L586.829 242.273L585.457 243.785V246.921H584.029ZM592.269 238.549V237.261H599.969V238.549H596.833V246.921H595.405V238.549H592.269ZM604.755 246.361V245.633H609.067C609.599 245.633 609.865 245.367 609.865 244.835V243.729C609.865 243.281 609.665 243.015 609.263 242.931L606.337 242.343C605.283 242.138 604.755 241.428 604.755 240.215V239.473C604.755 237.998 605.488 237.261 606.953 237.261H610.285L611.013 237.821V238.549H606.967C606.445 238.549 606.183 238.815 606.183 239.347V240.285C606.183 240.733 606.384 240.999 606.785 241.083L609.711 241.657C610.766 241.872 611.293 242.581 611.293 243.785V244.709C611.293 246.184 610.556 246.921 609.081 246.921H605.469L604.755 246.361ZM615.088 246.921C613.65 246.921 612.932 246.202 612.932 244.765C612.932 243.328 613.65 242.609 615.088 242.609H617.454V241.615C617.454 241.074 617.183 240.803 616.642 240.803H613.646V240.089L614.29 239.613H616.67C618.107 239.613 618.826 240.327 618.826 241.755V246.921H615.088ZM614.29 244.905C614.29 245.456 614.565 245.731 615.116 245.731H617.454V243.757H615.116C614.565 243.757 614.29 244.028 614.29 244.569V244.905ZM621.079 246.921V239.613H625.041C626.478 239.613 627.197 240.327 627.197 241.755V246.921H625.825V241.615C625.825 241.074 625.554 240.803 625.013 240.803H622.437V246.921H621.079ZM629.337 244.765V241.755C629.337 240.327 630.051 239.613 631.479 239.613H634.083V236.561H635.455V246.921H631.479C630.051 246.921 629.337 246.202 629.337 244.765ZM630.695 244.905C630.695 245.456 630.971 245.731 631.521 245.731H634.083V240.803H631.521C630.971 240.803 630.695 241.074 630.695 241.615V244.905ZM637.765 246.921V236.561H639.123V239.613H641.727C643.164 239.613 643.883 240.327 643.883 241.755V244.765C643.883 246.202 643.164 246.921 641.727 246.921H637.765ZM639.123 245.731H641.699C642.24 245.731 642.511 245.456 642.511 244.905V241.615C642.511 241.074 642.24 240.803 641.699 240.803H639.123V245.731ZM645.969 244.765V241.755C645.969 240.327 646.683 239.613 648.111 239.613H650.071C651.508 239.613 652.227 240.327 652.227 241.755V244.765C652.227 246.202 651.508 246.921 650.071 246.921H648.111C646.683 246.921 645.969 246.202 645.969 244.765ZM647.327 244.905C647.327 245.456 647.602 245.731 648.153 245.731H650.043C650.584 245.731 650.855 245.456 650.855 244.905V241.615C650.855 241.074 650.584 240.803 650.043 240.803H648.153C647.602 240.803 647.327 241.074 647.327 241.615V244.905ZM653.738 246.683L656.272 243.197L653.836 239.851L653.948 239.613H655.208L657.042 242.203L658.89 239.613H660.15L660.262 239.851L657.826 243.197L660.346 246.683L660.234 246.921H658.974L657.042 244.205L655.124 246.921H653.864L653.738 246.683Z" fill="white"/>
    <rect x="488.271" y="193.101" width="220.397" height="64.599" stroke="white" stroke-width="0.759988"/>
    <rect x="233.246" y="88.3432" width="218.267" height="66.0983" fill="black"/>
    <path d="M302.098 117.273V107.613H308.706V109.433H304.114V111.393H308.286V113.213H304.114V115.453H308.706V117.273H302.098ZM310.687 117.273V107.613H312.703V115.453H316.875V117.273H310.687ZM318.497 117.273V107.613H320.513V117.273H318.497ZM322.803 114.921V109.965C322.803 108.397 323.587 107.613 325.155 107.613H329.201L330.139 108.341V109.433H325.239C324.959 109.433 324.819 109.573 324.819 109.853V115.033C324.819 115.313 324.959 115.453 325.239 115.453H328.403V113.213H326.555V111.393H330.419V117.273H325.155C323.587 117.273 322.803 116.489 322.803 114.921ZM332.572 117.273V107.613H334.588V117.273H332.572ZM337.018 117.273V107.613H341.582C343.15 107.613 343.934 108.397 343.934 109.965V110.805C343.934 111.123 343.841 111.393 343.654 111.617L343.164 112.205L343.752 112.695C344.06 112.947 344.214 113.321 344.214 113.815V114.921C344.214 116.489 343.43 117.273 341.862 117.273H337.018ZM339.034 115.453H341.778C342.058 115.453 342.198 115.313 342.198 115.033V113.633C342.198 113.353 342.058 113.213 341.778 113.213H339.034V115.453ZM339.034 111.393H341.498C341.778 111.393 341.918 111.253 341.918 110.973V109.853C341.918 109.573 341.778 109.433 341.498 109.433H339.034V111.393ZM346.291 117.273V107.613H348.307V115.453H352.479V117.273H346.291ZM354.101 117.273V107.613H360.709V109.433H356.117V111.393H360.289V113.213H356.117V115.453H360.709V117.273H354.101ZM365.381 109.433V107.613H373.277V109.433H370.337V117.273H368.321V109.433H365.381ZM374.766 114.921V109.965C374.766 108.397 375.55 107.613 377.118 107.613H380.31C381.878 107.613 382.662 108.397 382.662 109.965V114.921C382.662 116.489 381.878 117.273 380.31 117.273H377.118C375.55 117.273 374.766 116.489 374.766 114.921ZM376.782 115.033C376.782 115.313 376.922 115.453 377.202 115.453H380.226C380.506 115.453 380.646 115.313 380.646 115.033V109.853C380.646 109.573 380.506 109.433 380.226 109.433H377.202C376.922 109.433 376.782 109.573 376.782 109.853V115.033ZM277.193 133.545V132.453H281.533C281.813 132.453 281.953 132.313 281.953 132.033V131.011C281.953 130.75 281.836 130.596 281.603 130.549L278.873 130.003C277.753 129.779 277.193 129.028 277.193 127.749V126.965C277.193 125.397 277.977 124.613 279.545 124.613H282.751L283.689 125.341V126.433H279.629C279.349 126.433 279.209 126.573 279.209 126.853V127.763C279.209 128.025 279.326 128.179 279.559 128.225L282.289 128.771C283.409 128.995 283.969 129.747 283.969 131.025V131.921C283.969 133.489 283.185 134.273 281.617 134.273H278.131L277.193 133.545ZM285.088 133.895L287.958 124.613H291.038L293.908 133.895L293.656 134.273H291.976L291.388 132.313H287.608L287.02 134.273H285.34L285.088 133.895ZM288.154 130.493H290.842L289.61 126.433H289.386L288.154 130.493ZM295.448 134.273V124.613H297.632L301.468 130.955V124.613H303.484V134.273H301.3L297.464 127.931V134.273H295.448ZM305.924 134.273V124.613H309.592C312.224 124.613 313.54 125.929 313.54 128.561V130.325C313.54 132.957 312.224 134.273 309.592 134.273H305.924ZM307.94 132.453H309.704C310.917 132.453 311.524 131.847 311.524 130.633V128.253C311.524 127.04 310.917 126.433 309.704 126.433H307.94V132.453ZM315.702 134.273V124.613H320.266C321.834 124.613 322.618 125.397 322.618 126.965V127.805C322.618 128.123 322.525 128.393 322.338 128.617L321.848 129.205L322.436 129.695C322.744 129.947 322.898 130.321 322.898 130.815V131.921C322.898 133.489 322.114 134.273 320.546 134.273H315.702ZM317.718 132.453H320.462C320.742 132.453 320.882 132.313 320.882 132.033V130.633C320.882 130.353 320.742 130.213 320.462 130.213H317.718V132.453ZM317.718 128.393H320.182C320.462 128.393 320.602 128.253 320.602 127.973V126.853C320.602 126.573 320.462 126.433 320.182 126.433H317.718V128.393ZM324.835 131.921V126.965C324.835 125.397 325.619 124.613 327.187 124.613H330.379C331.947 124.613 332.731 125.397 332.731 126.965V131.921C332.731 133.489 331.947 134.273 330.379 134.273H327.187C325.619 134.273 324.835 133.489 324.835 131.921ZM326.851 132.033C326.851 132.313 326.991 132.453 327.271 132.453H330.295C330.575 132.453 330.715 132.313 330.715 132.033V126.853C330.715 126.573 330.575 126.433 330.295 126.433H327.271C326.991 126.433 326.851 126.573 326.851 126.853V132.033ZM334.271 133.867L337.295 129.303L334.453 125.019L334.649 124.613H336.413L338.401 127.693L340.389 124.613H342.153L342.349 125.019L339.507 129.303L342.531 133.867L342.335 134.273H340.571L338.401 130.927L336.231 134.273H334.467L334.271 133.867ZM347.721 134.273V124.613H349.737V132.453H353.909V134.273H347.721ZM355.391 131.921V126.965C355.391 125.397 356.175 124.613 357.743 124.613H360.935C362.503 124.613 363.287 125.397 363.287 126.965V131.921C363.287 133.489 362.503 134.273 360.935 134.273H357.743C356.175 134.273 355.391 133.489 355.391 131.921ZM357.407 132.033C357.407 132.313 357.547 132.453 357.827 132.453H360.851C361.131 132.453 361.271 132.313 361.271 132.033V126.853C361.271 126.573 361.131 126.433 360.851 126.433H357.827C357.547 126.433 357.407 126.573 357.407 126.853V132.033ZM364.771 126.433V124.613H372.667V126.433H369.727V134.273H367.711V126.433H364.771ZM373.484 126.433V124.613H381.38V126.433H378.44V134.273H376.424V126.433H373.484ZM383.008 134.273V124.613H389.616V126.433H385.024V128.393H389.196V130.213H385.024V132.453H389.616V134.273H383.008ZM391.597 134.273V124.613H396.301C397.869 124.613 398.653 125.397 398.653 126.965V128.561C398.653 129.728 398.219 130.461 397.351 130.759L398.933 133.853L398.695 134.273H396.959L395.251 130.913H393.613V134.273H391.597ZM393.613 129.093H396.217C396.497 129.093 396.637 128.953 396.637 128.673V126.853C396.637 126.573 396.497 126.433 396.217 126.433H393.613V129.093ZM399.919 124.991L400.157 124.613H401.879L403.979 128.715L406.079 124.613H407.801L408.039 124.991L404.987 130.857V134.273H402.971V130.857L399.919 124.991Z" fill="white"/>
    <rect x="233.246" y="88.3432" width="218.267" height="66.0983" stroke="white" stroke-width="0.475527"/>
    <path d="M456.506 117.113L451.751 119.383L451.751 113.892L456.506 116.162L456.506 117.113ZM594.409 116.637L594.409 116.162L594.885 116.162L594.885 116.637L594.409 116.637ZM594.409 192.722L591.664 187.966L597.155 187.966L594.409 192.722ZM456.031 116.162L594.409 116.162L594.409 117.113L456.031 117.113L456.031 116.162ZM594.885 116.637L594.885 188.442L593.934 188.442L593.934 116.637L594.885 116.637Z" fill="white"/>
    <path d="M836.689 567.437V567.913H836.214V567.437H836.689ZM836.689 369.618V369.142H837.165V369.618H836.689ZM709.487 369.618L714.242 366.872V372.363L709.487 369.618ZM987.195 566.962L991.95 564.692V570.183L987.195 567.913V566.962ZM836.214 567.437V369.618H837.165V567.437H836.214ZM836.689 370.093H713.767V369.142H836.689V370.093ZM836.689 566.962H987.671V567.913H836.689V566.962Z" fill="white"/>
    <path d="M836.689 601.675V601.199H836.214V601.675H836.689ZM836.689 899.355V899.831H837.165V899.355H836.689ZM709.487 899.355L714.242 902.1V896.61L709.487 899.355ZM987.195 602.15L991.95 604.42V598.929L987.195 601.199V602.15ZM836.214 601.675V899.355H837.165V601.675H836.214ZM836.689 898.879H713.767V899.831H836.689V898.879ZM836.689 602.15H987.671V601.199H836.689V602.15Z" fill="white"/>
    <path d="M865.216 556.976V557.451H864.74V556.976H865.216ZM865.216 226.959V226.484H865.691V226.959H865.216ZM709.487 226.959L714.242 224.214V229.705L709.487 226.959ZM987.195 556.5L991.95 554.23V559.721L987.195 557.451V556.5ZM864.74 556.976V226.959H865.691V556.976H864.74ZM865.216 227.435H713.767V226.484H865.216V227.435ZM865.216 556.5H987.671V557.451H865.216V556.5Z" fill="white"/>
    <path d="M805.675 578.85V579.325H805.199V578.85H805.675ZM805.675 504.667V504.192H806.15V504.667H805.675ZM709.487 504.667L714.242 501.922V507.413L709.487 504.667ZM987.195 578.374L991.95 576.104V581.595L987.195 579.325V578.374ZM805.199 578.85V504.667H806.15V578.85H805.199ZM805.675 505.143H713.767V504.192H805.675V505.143ZM805.675 578.374H987.671V579.325H805.675V578.374Z" fill="white"/>
    <path d="M805.675 590.262V589.787H805.199V590.262H805.675ZM805.675 653.983V654.458H806.15V653.983H805.675ZM709.487 653.983L714.242 656.728V651.237L709.487 653.983ZM987.195 590.738L991.95 593.008V587.517L987.195 589.787V590.738ZM805.199 590.262V653.983H806.15V590.262H805.199ZM805.675 653.507H713.767V654.458H805.675V653.507ZM805.675 590.738H987.671V589.787H805.675V590.738Z" fill="white"/>
    <rect x="992.426" y="546.039" width="60.8675" height="65.6228" fill="black" stroke="white" stroke-width="0.951055"/>
    <path d="M1001.71 582.563V581.471H1005.77C1006.05 581.471 1006.19 581.331 1006.19 581.051V580.239C1006.19 579.977 1006.08 579.823 1005.84 579.777L1003.39 579.287C1002.27 579.063 1001.71 578.311 1001.71 577.033V576.403C1001.71 574.835 1002.5 574.051 1004.07 574.051H1004.12V572.371H1005.8V574.051H1006.99L1007.93 574.779V575.871H1004.15C1003.87 575.871 1003.73 576.011 1003.73 576.291V577.047C1003.73 577.308 1003.85 577.462 1004.08 577.509L1006.53 577.999C1007.65 578.223 1008.21 578.974 1008.21 580.253V580.939C1008.21 582.507 1007.43 583.291 1005.86 583.291H1005.8V584.971H1004.12V583.291H1002.65L1001.71 582.563ZM1010.3 583.291V573.631H1016.91V575.451H1012.31V577.831H1016.49V579.651H1012.31V583.291H1010.3ZM1018.61 583.291V573.631H1023.32C1024.89 573.631 1025.67 574.415 1025.67 575.983V577.579C1025.67 578.745 1025.24 579.478 1024.37 579.777L1025.95 582.871L1025.71 583.291H1023.98L1022.27 579.931H1020.63V583.291H1018.61ZM1020.63 578.111H1023.23C1023.51 578.111 1023.65 577.971 1023.65 577.691V575.871C1023.65 575.591 1023.51 575.451 1023.23 575.451H1020.63V578.111ZM1027.83 583.291V573.631H1029.85V577.453L1033.26 573.631H1035.15L1035.35 574.037L1032.14 577.607L1035.7 582.885L1035.5 583.291H1033.66L1030.84 579.063L1029.85 580.141V583.291H1027.83ZM1036.57 575.451V573.631H1044.46V575.451H1041.52V583.291H1039.51V575.451H1036.57Z" fill="white"/>
    <rect x="1054.41" y="546.039" width="54.2101" height="65.6228" fill="white" stroke="white" stroke-width="0.951055"/>
    <path d="M1068.68 583V573.34H1073.25C1074.82 573.34 1075.6 574.124 1075.6 575.692V576.532C1075.6 576.849 1075.51 577.12 1075.32 577.344L1074.83 577.932L1075.42 578.422C1075.73 578.674 1075.88 579.047 1075.88 579.542V580.648C1075.88 582.216 1075.1 583 1073.53 583H1068.68ZM1070.7 581.18H1073.44C1073.72 581.18 1073.86 581.04 1073.86 580.76V579.36C1073.86 579.08 1073.72 578.94 1073.44 578.94H1070.7V581.18ZM1070.7 577.12H1073.16C1073.44 577.12 1073.58 576.98 1073.58 576.7V575.58C1073.58 575.3 1073.44 575.16 1073.16 575.16H1070.7V577.12ZM1077.87 580.648V573.34H1079.89V580.76C1079.89 581.04 1080.03 581.18 1080.31 581.18H1083.05C1083.33 581.18 1083.47 581.04 1083.47 580.76V573.34H1085.49V580.648C1085.49 582.216 1084.71 583 1083.14 583H1080.23C1078.66 583 1077.87 582.216 1077.87 580.648ZM1086.95 573.718L1087.19 573.34H1088.91L1091.01 577.442L1093.11 573.34H1094.83L1095.07 573.718L1092.02 579.584V583H1090V579.584L1086.95 573.718Z" fill="black"/>
    <path d="M543.574 637.251V627.591H545.59V635.431H549.762V637.251H543.574ZM551.384 637.251V627.591H556.088C557.656 627.591 558.44 628.375 558.44 629.943V631.819C558.44 633.387 557.656 634.171 556.088 634.171H553.4V637.251H551.384ZM553.4 632.351H556.004C556.284 632.351 556.424 632.211 556.424 631.931V629.831C556.424 629.551 556.284 629.411 556.004 629.411H553.4V632.351ZM563.955 637.251V627.591H570.563V629.411H565.971V631.791H570.143V633.611H565.971V637.251H563.955ZM572.271 637.251V627.591H576.975C578.543 627.591 579.327 628.375 579.327 629.943V631.539C579.327 632.706 578.893 633.439 578.025 633.737L579.607 636.831L579.369 637.251H577.633L575.925 633.891H574.287V637.251H572.271ZM574.287 632.071H576.891C577.171 632.071 577.311 631.931 577.311 631.651V629.831C577.311 629.551 577.171 629.411 576.891 629.411H574.287V632.071ZM580.593 636.873L583.463 627.591H586.543L589.413 636.873L589.161 637.251H587.481L586.893 635.291H583.113L582.525 637.251H580.845L580.593 636.873ZM583.659 633.471H586.347L585.115 629.411H584.891L583.659 633.471ZM590.953 637.251V627.591H592.969V631.413L596.385 627.591H598.275L598.471 627.997L595.265 631.567L598.821 636.845L598.625 637.251H596.777L593.963 633.023L592.969 634.101V637.251H590.953ZM599.687 629.411V627.591H607.583V629.411H604.643V637.251H602.627V629.411H599.687ZM609.212 637.251V627.591H611.228V637.251H609.212ZM613.518 634.899V629.943C613.518 628.375 614.302 627.591 615.87 627.591H619.062C620.63 627.591 621.414 628.375 621.414 629.943V634.899C621.414 636.467 620.63 637.251 619.062 637.251H615.87C614.302 637.251 613.518 636.467 613.518 634.899ZM615.534 635.011C615.534 635.291 615.674 635.431 615.954 635.431H618.978C619.258 635.431 619.398 635.291 619.398 635.011V629.831C619.398 629.551 619.258 629.411 618.978 629.411H615.954C615.674 629.411 615.534 629.551 615.534 629.831V635.011ZM623.71 637.251V627.591H625.894L629.73 633.933V627.591H631.746V637.251H629.562L625.726 630.909V637.251H623.71ZM633.766 636.523V635.431H638.106C638.386 635.431 638.526 635.291 638.526 635.011V633.989C638.526 633.728 638.41 633.574 638.176 633.527L635.446 632.981C634.326 632.757 633.766 632.006 633.766 630.727V629.943C633.766 628.375 634.55 627.591 636.118 627.591H639.324L640.262 628.319V629.411H636.202C635.922 629.411 635.782 629.551 635.782 629.831V630.741C635.782 631.003 635.899 631.157 636.132 631.203L638.862 631.749C639.982 631.973 640.542 632.725 640.542 634.003V634.899C640.542 636.467 639.758 637.251 638.19 637.251H634.704L633.766 636.523ZM645.78 634.983V633.779C645.78 633.294 645.934 632.921 646.242 632.659L646.83 632.169L646.34 631.581C646.153 631.357 646.06 631.087 646.06 630.769V629.859C646.06 628.347 646.816 627.591 648.328 627.591H650.876L651.716 628.221V629.271H648.44C648.141 629.271 647.992 629.421 647.992 629.719V630.923C647.992 631.222 648.141 631.371 648.44 631.371H653.816V633.051H652.416V637.251H648.048C646.536 637.251 645.78 636.495 645.78 634.983ZM647.712 635.123C647.712 635.422 647.861 635.571 648.16 635.571H650.484V633.051H648.16C647.861 633.051 647.712 633.201 647.712 633.499V635.123ZM555.181 654.251V644.591H558.849C561.481 644.591 562.797 645.907 562.797 648.539V650.303C562.797 652.935 561.481 654.251 558.849 654.251H555.181ZM557.197 652.431H558.961C560.174 652.431 560.781 651.825 560.781 650.611V648.231C560.781 647.018 560.174 646.411 558.961 646.411H557.197V652.431ZM564.96 654.251V644.591H571.568V646.411H566.976V648.371H571.148V650.191H566.976V652.431H571.568V654.251H564.96ZM573.549 654.251V644.591H578.253C579.821 644.591 580.605 645.375 580.605 646.943V648.539C580.605 649.706 580.171 650.439 579.303 650.737L580.885 653.831L580.647 654.251H578.911L577.203 650.891H575.565V654.251H573.549ZM575.565 649.071H578.169C578.449 649.071 578.589 648.931 578.589 648.651V646.831C578.589 646.551 578.449 646.411 578.169 646.411H575.565V649.071ZM582.767 654.251V644.591H584.783V654.251H582.767ZM586.318 644.969L586.57 644.591H588.334L590.546 652.431H590.77L592.982 644.591H594.746L594.998 644.969L592.254 654.251H589.062L586.318 644.969ZM595.085 653.873L597.955 644.591H601.035L603.905 653.873L603.653 654.251H601.973L601.385 652.291H597.605L597.017 654.251H595.337L595.085 653.873ZM598.151 650.471H600.839L599.607 646.411H599.383L598.151 650.471ZM603.936 646.411V644.591H611.832V646.411H608.892V654.251H606.876V646.411H603.936ZM613.46 654.251V644.591H615.476V654.251H613.46ZM617.011 644.969L617.263 644.591H619.027L621.239 652.431H621.463L623.675 644.591H625.439L625.691 644.969L622.947 654.251H619.755L617.011 644.969ZM627.234 654.251V644.591H633.842V646.411H629.25V648.371H633.422V650.191H629.25V652.431H633.842V654.251H627.234ZM635.403 653.523V652.431H639.743C640.023 652.431 640.163 652.291 640.163 652.011V650.989C640.163 650.728 640.047 650.574 639.813 650.527L637.083 649.981C635.963 649.757 635.403 649.006 635.403 647.727V646.943C635.403 645.375 636.187 644.591 637.755 644.591H640.961L641.899 645.319V646.411H637.839C637.559 646.411 637.419 646.551 637.419 646.831V647.741C637.419 648.003 637.536 648.157 637.769 648.203L640.499 648.749C641.619 648.973 642.179 649.725 642.179 651.003V651.899C642.179 653.467 641.395 654.251 639.827 654.251H636.341L635.403 653.523ZM552.369 669.151V666.071C552.369 664.671 553.069 663.971 554.469 663.971H556.429C557.829 663.971 558.529 664.671 558.529 666.071V669.151C558.529 670.551 557.829 671.251 556.429 671.251H554.469C553.069 671.251 552.369 670.551 552.369 669.151ZM553.489 669.291C553.489 669.945 553.815 670.271 554.469 670.271H556.429C557.082 670.271 557.409 669.945 557.409 669.291V665.931C557.409 665.278 557.082 664.951 556.429 664.951H554.469C553.815 664.951 553.489 665.278 553.489 665.931V669.291ZM560.796 671.251V663.971H564.716C566.116 663.971 566.816 664.671 566.816 666.071V671.251H565.696V665.931C565.696 665.278 565.37 664.951 564.716 664.951H561.916V671.251H560.796ZM572.643 671.251V662.991C572.643 661.591 573.343 660.891 574.743 660.891H576.003L576.563 661.311V661.871H574.743C574.089 661.871 573.763 662.198 573.763 662.851V663.971H576.423V664.951H573.763V671.251H572.643ZM578.045 671.251V664.811C578.372 664.251 578.978 663.971 579.865 663.971H581.265L581.825 664.391V664.951H579.865C579.548 664.951 579.314 665.035 579.165 665.203V671.251H578.045ZM585.035 671.251C583.626 671.251 582.921 670.547 582.921 669.137C582.921 667.728 583.626 667.023 585.035 667.023H587.597V665.931C587.597 665.278 587.271 664.951 586.617 664.951H583.621V664.391L584.181 663.971H586.617C588.017 663.971 588.717 664.671 588.717 666.071V671.251H585.035ZM584.041 669.291C584.041 669.945 584.368 670.271 585.021 670.271H587.597V668.003H585.021C584.368 668.003 584.041 668.33 584.041 668.983V669.291ZM591.041 671.251V660.891H592.161V667.681L595.535 663.971H596.627L596.725 664.181L594.121 667.023L596.921 671.041L596.823 671.251H595.731L593.379 667.835L592.161 669.151V671.251H591.041ZM598.522 669.151V661.591H599.642V663.971H602.302V664.951H599.642V669.291C599.642 669.945 599.968 670.271 600.622 670.271H602.442V670.831L601.882 671.251H600.622C599.222 671.251 598.522 670.551 598.522 669.151ZM604.172 662.655V661.367H605.348V662.655H604.172ZM604.2 671.251V663.971H605.32V671.251H604.2ZM607.591 669.151V666.071C607.591 664.671 608.291 663.971 609.691 663.971H611.651C613.051 663.971 613.751 664.671 613.751 666.071V669.151C613.751 670.551 613.051 671.251 611.651 671.251H609.691C608.291 671.251 607.591 670.551 607.591 669.151ZM608.711 669.291C608.711 669.945 609.038 670.271 609.691 670.271H611.651C612.305 670.271 612.631 669.945 612.631 669.291V665.931C612.631 665.278 612.305 664.951 611.651 664.951H609.691C609.038 664.951 608.711 665.278 608.711 665.931V669.291ZM616.019 671.251V663.971H619.939C621.339 663.971 622.039 664.671 622.039 666.071V671.251H620.919V665.931C620.919 665.278 620.593 664.951 619.939 664.951H617.139V671.251H616.019ZM624.362 671.251V669.711H625.762V671.251H624.362ZM629.861 671.251C628.452 671.251 627.747 670.547 627.747 669.137C627.747 667.728 628.452 667.023 629.861 667.023H632.423V665.931C632.423 665.278 632.096 664.951 631.443 664.951H628.447V664.391L629.007 663.971H631.443C632.843 663.971 633.543 664.671 633.543 666.071V671.251H629.861ZM628.867 669.291C628.867 669.945 629.194 670.271 629.847 670.271H632.423V668.003H629.847C629.194 668.003 628.867 668.33 628.867 668.983V669.291ZM635.811 671.251V664.811C636.138 664.251 636.744 663.971 637.631 663.971H639.031L639.591 664.391V664.951H637.631C637.314 664.951 637.08 665.035 636.931 665.203V671.251H635.811ZM641.16 669.151V661.591H642.28V663.971H644.94V664.951H642.28V669.291C642.28 669.945 642.607 670.271 643.26 670.271H645.08V670.831L644.52 671.251H643.26C641.86 671.251 641.16 670.551 641.16 669.151Z" fill="white"/>
    <rect x="488.271" y="617.432" width="220.397" height="64.599" stroke="white" stroke-width="0.759988"/>
    <path d="M594.885 687.746L597.155 682.99L591.664 682.99L593.934 687.746L594.885 687.746ZM594.409 721.032L597.155 716.277L591.664 716.277L594.409 721.032ZM593.934 687.27L593.934 716.753L594.885 716.753L594.885 687.27L593.934 687.27Z" fill="white"/>
    <path d="M519.163 749.364V739.704H525.771V741.524H521.179V743.484H525.351V745.304H521.179V747.544H525.771V749.364H519.163ZM529.488 749.364C527.976 749.364 527.22 748.622 527.22 747.138C527.22 745.654 527.976 744.912 529.488 744.912H531.42V744.1C531.42 743.801 531.271 743.652 530.972 743.652H528.004V742.602L528.844 741.972H531.084C532.596 741.972 533.352 742.728 533.352 744.24V749.364H529.488ZM529.152 747.236C529.152 747.534 529.301 747.684 529.6 747.684H531.42V746.424H529.6C529.301 746.424 529.152 746.573 529.152 746.872V747.236ZM535.393 749.364V742.924C535.739 742.289 536.401 741.972 537.381 741.972H538.893L539.733 742.602V743.652H537.843C537.591 743.652 537.419 743.712 537.325 743.834V749.364H535.393ZM541.249 749.364V741.972H545.337C546.849 741.972 547.605 742.728 547.605 744.24V749.364H545.673V744.1C545.673 743.801 545.524 743.652 545.225 743.652H543.181V749.364H541.249ZM553.345 749.364V739.704H558.049C559.617 739.704 560.401 740.488 560.401 742.056V743.932C560.401 745.5 559.617 746.284 558.049 746.284H555.361V749.364H553.345ZM555.361 744.464H557.965C558.245 744.464 558.385 744.324 558.385 744.044V741.944C558.385 741.664 558.245 741.524 557.965 741.524H555.361V744.464ZM562.413 749.364V739.704H567.117C568.685 739.704 569.469 740.488 569.469 742.056V743.652C569.469 744.818 569.035 745.551 568.167 745.85L569.749 748.944L569.511 749.364H567.775L566.067 746.004H564.429V749.364H562.413ZM564.429 744.184H567.033C567.313 744.184 567.453 744.044 567.453 743.764V741.944C567.453 741.664 567.313 741.524 567.033 741.524H564.429V744.184ZM571.491 747.012V742.056C571.491 740.488 572.275 739.704 573.843 739.704H577.035C578.603 739.704 579.387 740.488 579.387 742.056V747.012C579.387 748.58 578.603 749.364 577.035 749.364H573.843C572.275 749.364 571.491 748.58 571.491 747.012ZM573.507 747.124C573.507 747.404 573.647 747.544 573.927 747.544H576.951C577.231 747.544 577.371 747.404 577.371 747.124V741.944C577.371 741.664 577.231 741.524 576.951 741.524H573.927C573.647 741.524 573.507 741.664 573.507 741.944V747.124ZM580.871 741.524V739.704H588.767V741.524H585.827V749.364H583.811V741.524H580.871ZM590.255 747.012V742.056C590.255 740.488 591.039 739.704 592.607 739.704H595.799C597.367 739.704 598.151 740.488 598.151 742.056V747.012C598.151 748.58 597.367 749.364 595.799 749.364H592.607C591.039 749.364 590.255 748.58 590.255 747.012ZM592.271 747.124C592.271 747.404 592.411 747.544 592.691 747.544H595.715C595.995 747.544 596.135 747.404 596.135 747.124V741.944C596.135 741.664 595.995 741.524 595.715 741.524H592.691C592.411 741.524 592.271 741.664 592.271 741.944V747.124ZM600.307 747.012V742.056C600.307 740.488 601.091 739.704 602.659 739.704H606.397L607.335 740.432V741.524H602.743C602.463 741.524 602.323 741.664 602.323 741.944V747.124C602.323 747.404 602.463 747.544 602.743 747.544H607.335V748.636L606.397 749.364H602.659C601.091 749.364 600.307 748.58 600.307 747.012ZM609.184 747.012V742.056C609.184 740.488 609.968 739.704 611.536 739.704H614.728C616.296 739.704 617.08 740.488 617.08 742.056V747.012C617.08 748.58 616.296 749.364 614.728 749.364H611.536C609.968 749.364 609.184 748.58 609.184 747.012ZM611.2 747.124C611.2 747.404 611.34 747.544 611.62 747.544H614.644C614.924 747.544 615.064 747.404 615.064 747.124V741.944C615.064 741.664 614.924 741.524 614.644 741.524H611.62C611.34 741.524 611.2 741.664 611.2 741.944V747.124ZM619.376 749.364V739.704H621.392V747.544H625.564V749.364H619.376ZM630.689 749.364V739.704H637.297V741.524H632.705V743.904H636.877V745.724H632.705V749.364H630.689ZM639.005 749.364V739.704H645.613V741.524H641.021V743.484H645.193V745.304H641.021V747.544H645.613V749.364H639.005ZM647.594 749.364V739.704H654.202V741.524H649.61V743.484H653.782V745.304H649.61V747.544H654.202V749.364H647.594ZM655.763 748.636V747.544H660.103C660.383 747.544 660.523 747.404 660.523 747.124V746.102C660.523 745.84 660.407 745.686 660.173 745.64L657.443 745.094C656.323 744.87 655.763 744.118 655.763 742.84V742.056C655.763 740.488 656.547 739.704 658.115 739.704H661.321L662.259 740.432V741.524H658.199C657.919 741.524 657.779 741.664 657.779 741.944V742.854C657.779 743.115 657.896 743.269 658.129 743.316L660.859 743.862C661.979 744.086 662.539 744.837 662.539 746.116V747.012C662.539 748.58 661.755 749.364 660.187 749.364H656.701L655.763 748.636ZM667.777 747.096V745.892C667.777 745.406 667.931 745.033 668.239 744.772L668.827 744.282L668.337 743.694C668.15 743.47 668.057 743.199 668.057 742.882V741.972C668.057 740.46 668.813 739.704 670.325 739.704H672.873L673.713 740.334V741.384H670.437C670.138 741.384 669.989 741.533 669.989 741.832V743.036C669.989 743.334 670.138 743.484 670.437 743.484H675.813V745.164H674.413V749.364H670.045C668.533 749.364 667.777 748.608 667.777 747.096ZM669.709 747.236C669.709 747.534 669.858 747.684 670.157 747.684H672.481V745.164H670.157C669.858 745.164 669.709 745.313 669.709 745.612V747.236ZM571.962 766.364V756.704H573.138V765.3H577.842V766.364H571.962ZM579.58 766.364V756.704H584.158C585.586 756.704 586.3 757.418 586.3 758.846V760.666C586.3 762.094 585.586 762.808 584.158 762.808H580.756V766.364H579.58ZM580.756 761.744H584.172C584.807 761.744 585.124 761.426 585.124 760.792V758.72C585.124 758.085 584.807 757.768 584.172 757.768H580.756V761.744ZM592.042 766.364V756.704H598.342V757.768H593.218V761.184H597.922V762.248H593.218V766.364H592.042ZM600.166 766.364V756.704H606.466V757.768H601.342V760.764H606.046V761.828H601.342V765.3H606.466V766.364H600.166ZM608.564 766.364V756.704H614.864V757.768H609.74V760.764H614.444V761.828H609.74V765.3H614.864V766.364H608.564ZM616.542 765.874V765.3H620.854C621.489 765.3 621.806 764.982 621.806 764.348V763.2C621.806 762.668 621.568 762.355 621.092 762.262L618.082 761.66C617.055 761.454 616.542 760.764 616.542 759.588V758.846C616.542 757.418 617.256 756.704 618.684 756.704H622.072L622.702 757.194V757.768H618.67C618.035 757.768 617.718 758.085 617.718 758.72V759.672C617.718 760.204 617.956 760.516 618.432 760.61L621.442 761.212C622.469 761.417 622.982 762.108 622.982 763.284V764.222C622.982 765.65 622.268 766.364 620.84 766.364H617.172L616.542 765.874Z" fill="white"/>
    <rect x="488.271" y="720.937" width="217.983" height="65.8139" stroke="white" stroke-width="0.759988"/>
    <path d="M621.039 979.964L620.563 979.964L620.563 980.44L621.039 980.44L621.039 979.964ZM843.586 979.964L844.061 979.964L844.061 979.489L843.586 979.489L843.586 979.964ZM843.586 1005.87L846.331 1001.12L840.84 1001.12L843.586 1005.87ZM621.514 934.544L623.784 929.789L618.293 929.789L620.563 934.544L621.514 934.544ZM621.039 980.44L843.586 980.44L843.586 979.489L621.039 979.489L621.039 980.44ZM843.11 979.964L843.11 1001.59L844.061 1001.59L844.061 979.964L843.11 979.964ZM621.514 979.964L621.514 934.069L620.563 934.069L620.563 979.964L621.514 979.964Z" fill="white"/>
    <path d="M570.633 979.964L571.108 979.964L571.108 980.44L570.633 980.44L570.633 979.964ZM352.841 979.964L352.366 979.964L352.366 979.489L352.841 979.489L352.841 979.964ZM352.841 1005.87L350.096 1001.12L355.587 1001.12L352.841 1005.87ZM570.157 934.544L567.887 929.789L573.378 929.789L571.108 934.544L570.157 934.544ZM570.633 980.44L352.841 980.44L352.841 979.489L570.633 979.489L570.633 980.44ZM353.317 979.964L353.317 1001.59L352.366 1001.59L352.366 979.964L353.317 979.964ZM570.157 979.964L570.157 934.069L571.108 934.069L571.108 979.964L570.157 979.964Z" fill="white"/>
    <path d="M557.733 891.294V890.202H562.073C562.353 890.202 562.493 890.062 562.493 889.782V888.76C562.493 888.499 562.377 888.345 562.143 888.298L559.413 887.752C558.293 887.528 557.733 886.777 557.733 885.498V884.714C557.733 883.146 558.517 882.362 560.085 882.362H563.291L564.229 883.09V884.182H560.169C559.889 884.182 559.749 884.322 559.749 884.602V885.512C559.749 885.774 559.866 885.928 560.099 885.974L562.829 886.52C563.949 886.744 564.509 887.496 564.509 888.774V889.67C564.509 891.238 563.725 892.022 562.157 892.022H558.671L557.733 891.294ZM566.328 889.754V882.362H568.26V884.63H570.668V886.31H568.26V889.894C568.26 890.193 568.409 890.342 568.708 890.342H570.808V891.392L569.968 892.022H568.596C567.084 892.022 566.328 891.266 566.328 889.754ZM574.333 892.022C572.821 892.022 572.065 891.28 572.065 889.796C572.065 888.312 572.821 887.57 574.333 887.57H576.265V886.758C576.265 886.46 576.116 886.31 575.817 886.31H572.849V885.26L573.689 884.63H575.929C577.441 884.63 578.197 885.386 578.197 886.898V892.022H574.333ZM573.997 889.894C573.997 890.193 574.147 890.342 574.445 890.342H576.265V889.082H574.445C574.147 889.082 573.997 889.232 573.997 889.53V889.894ZM580.295 892.022V881.662H582.227V887.416L584.789 884.63H586.693L586.847 884.952L584.285 887.71L587.043 891.7L586.889 892.022H584.999L583.011 889.096L582.227 889.95V892.022H580.295ZM588.444 889.754V886.898C588.444 885.386 589.2 884.63 590.712 884.63H592.532C594.044 884.63 594.8 885.386 594.8 886.898V889.054H590.376V889.894C590.376 890.193 590.525 890.342 590.824 890.342H594.52V891.392L593.68 892.022H590.712C589.2 892.022 588.444 891.266 588.444 889.754ZM590.376 887.542H592.868V886.758C592.868 886.46 592.718 886.31 592.42 886.31H590.824C590.525 886.31 590.376 886.46 590.376 886.758V887.542ZM600.138 891.294V890.202H604.198C604.478 890.202 604.618 890.062 604.618 889.782V888.97C604.618 888.709 604.501 888.555 604.268 888.508L601.818 888.018C600.698 887.794 600.138 887.043 600.138 885.764V885.134C600.138 883.566 600.922 882.782 602.49 882.782H602.546V881.102H604.226V882.782H605.416L606.354 883.51V884.602H602.574C602.294 884.602 602.154 884.742 602.154 885.022V885.778C602.154 886.04 602.27 886.194 602.504 886.24L604.954 886.73C606.074 886.954 606.634 887.706 606.634 888.984V889.67C606.634 891.238 605.85 892.022 604.282 892.022H604.226V893.702H602.546V892.022H601.076L600.138 891.294ZM608.721 892.022V882.362H615.329V884.182H610.737V886.562H614.909V888.382H610.737V892.022H608.721ZM617.037 892.022V882.362H621.741C623.309 882.362 624.093 883.146 624.093 884.714V886.31C624.093 887.477 623.659 888.21 622.791 888.508L624.373 891.602L624.135 892.022H622.399L620.691 888.662H619.053V892.022H617.037ZM619.053 886.842H621.657C621.937 886.842 622.077 886.702 622.077 886.422V884.602C622.077 884.322 621.937 884.182 621.657 884.182H619.053V886.842ZM626.255 892.022V882.362H628.271V886.184L631.687 882.362H633.577L633.773 882.768L630.567 886.338L634.123 891.616L633.927 892.022H632.079L629.265 887.794L628.271 888.872V892.022H626.255ZM634.989 884.182V882.362H642.885V884.182H639.945V892.022H637.929V884.182H634.989ZM564.096 906.922V903.842C564.096 902.442 564.796 901.742 566.196 901.742H568.156C569.556 901.742 570.256 902.442 570.256 903.842V906.922C570.256 908.322 569.556 909.022 568.156 909.022H566.196C564.796 909.022 564.096 908.322 564.096 906.922ZM565.216 907.062C565.216 907.716 565.542 908.042 566.196 908.042H568.156C568.809 908.042 569.136 907.716 569.136 907.062V903.702C569.136 903.049 568.809 902.722 568.156 902.722H566.196C565.542 902.722 565.216 903.049 565.216 903.702V907.062ZM572.524 909.022V901.742H576.444C577.844 901.742 578.544 902.442 578.544 903.842V909.022H577.424V903.702C577.424 903.049 577.097 902.722 576.444 902.722H573.644V909.022H572.524ZM584.37 909.022V900.762C584.37 899.362 585.07 898.662 586.47 898.662H587.73L588.29 899.082V899.642H586.47C585.817 899.642 585.49 899.969 585.49 900.622V901.742H588.15V902.722H585.49V909.022H584.37ZM589.772 909.022V902.582C590.099 902.022 590.706 901.742 591.592 901.742H592.992L593.552 902.162V902.722H591.592C591.275 902.722 591.042 902.806 590.892 902.974V909.022H589.772ZM596.763 909.022C595.353 909.022 594.649 908.318 594.649 906.908C594.649 905.499 595.353 904.794 596.763 904.794H599.325V903.702C599.325 903.049 598.998 902.722 598.345 902.722H595.349V902.162L595.909 901.742H598.345C599.745 901.742 600.445 902.442 600.445 903.842V909.022H596.763ZM595.769 907.062C595.769 907.716 596.095 908.042 596.749 908.042H599.325V905.774H596.749C596.095 905.774 595.769 906.101 595.769 906.754V907.062ZM602.768 909.022V898.662H603.888V905.452L607.262 901.742H608.354L608.452 901.952L605.848 904.794L608.648 908.812L608.55 909.022H607.458L605.106 905.606L603.888 906.922V909.022H602.768ZM610.249 906.922V899.362H611.369V901.742H614.029V902.722H611.369V907.062C611.369 907.716 611.696 908.042 612.349 908.042H614.169V908.602L613.609 909.022H612.349C610.949 909.022 610.249 908.322 610.249 906.922ZM615.927 909.022V907.482H617.327V909.022H615.927ZM621.426 909.022C620.017 909.022 619.312 908.318 619.312 906.908C619.312 905.499 620.017 904.794 621.426 904.794H623.988V903.702C623.988 903.049 623.661 902.722 623.008 902.722H620.012V902.162L620.572 901.742H623.008C624.408 901.742 625.108 902.442 625.108 903.842V909.022H621.426ZM620.432 907.062C620.432 907.716 620.759 908.042 621.412 908.042H623.988V905.774H621.412C620.759 905.774 620.432 906.101 620.432 906.754V907.062ZM627.376 909.022V902.582C627.703 902.022 628.309 901.742 629.196 901.742H630.596L631.156 902.162V902.722H629.196C628.879 902.722 628.645 902.806 628.496 902.974V909.022H627.376ZM632.725 906.922V899.362H633.845V901.742H636.505V902.722H633.845V907.062C633.845 907.716 634.172 908.042 634.825 908.042H636.645V908.602L636.085 909.022H634.825C633.425 909.022 632.725 908.322 632.725 906.922Z" fill="white"/>
    <rect x="491.124" y="863.595" width="217.983" height="65.8139" stroke="white" stroke-width="0.759988"/>
    <path d="M287.046 1024.21V1016.91H289.062V1024.33C289.062 1024.61 289.202 1024.75 289.482 1024.75H292.226C292.506 1024.75 292.646 1024.61 292.646 1024.33V1016.91H294.662V1024.21C294.662 1025.78 293.878 1026.57 292.31 1026.57H289.398C287.83 1026.57 287.046 1025.78 287.046 1024.21ZM297.018 1026.57V1016.91H299.202L303.038 1023.25V1016.91H305.054V1026.57H302.87L299.034 1020.22V1026.57H297.018ZM307.494 1026.57V1016.91H309.51V1024.75H313.682V1026.57H307.494ZM315.164 1024.21V1019.26C315.164 1017.69 315.948 1016.91 317.516 1016.91H320.708C322.276 1016.91 323.06 1017.69 323.06 1019.26V1024.21C323.06 1025.78 322.276 1026.57 320.708 1026.57H317.516C315.948 1026.57 315.164 1025.78 315.164 1024.21ZM317.18 1024.33C317.18 1024.61 317.32 1024.75 317.6 1024.75H320.624C320.904 1024.75 321.044 1024.61 321.044 1024.33V1019.15C321.044 1018.87 320.904 1018.73 320.624 1018.73H317.6C317.32 1018.73 317.18 1018.87 317.18 1019.15V1024.33ZM325.216 1024.21V1019.26C325.216 1017.69 326 1016.91 327.568 1016.91H331.306L332.244 1017.63V1018.73H327.652C327.372 1018.73 327.232 1018.87 327.232 1019.15V1024.33C327.232 1024.61 327.372 1024.75 327.652 1024.75H332.244V1025.84L331.306 1026.57H327.568C326 1026.57 325.216 1025.78 325.216 1024.21ZM334.233 1026.57V1016.91H336.249V1020.73L339.665 1016.91H341.555L341.751 1017.31L338.545 1020.88L342.101 1026.16L341.905 1026.57H340.057L337.243 1022.34L336.249 1023.42V1026.57H334.233ZM346.386 1017.28L346.638 1016.91H348.402L350.614 1024.75H350.838L353.05 1016.91H354.814L355.066 1017.28L352.322 1026.57H349.13L346.386 1017.28ZM356.47 1024.21V1019.26C356.47 1017.69 357.254 1016.91 358.822 1016.91H362.014C363.582 1016.91 364.366 1017.69 364.366 1019.26V1024.21C364.366 1025.78 363.582 1026.57 362.014 1026.57H358.822C357.254 1026.57 356.47 1025.78 356.47 1024.21ZM358.486 1024.33C358.486 1024.61 358.626 1024.75 358.906 1024.75H361.93C362.21 1024.75 362.35 1024.61 362.35 1024.33V1019.15C362.35 1018.87 362.21 1018.73 361.93 1018.73H358.906C358.626 1018.73 358.486 1018.87 358.486 1019.15V1024.33ZM365.85 1018.73V1016.91H373.746V1018.73H370.806V1026.57H368.79V1018.73H365.85ZM375.374 1026.57V1016.91H377.39V1026.57H375.374ZM379.821 1026.57V1016.91H382.005L385.841 1023.25V1016.91H387.857V1026.57H385.673L381.837 1020.22V1026.57H379.821ZM390.157 1024.21V1019.26C390.157 1017.69 390.941 1016.91 392.509 1016.91H396.555L397.493 1017.63V1018.73H392.593C392.313 1018.73 392.173 1018.87 392.173 1019.15V1024.33C392.173 1024.61 392.313 1024.75 392.593 1024.75H395.757V1022.51H393.909V1020.69H397.773V1026.57H392.509C390.941 1026.57 390.157 1025.78 390.157 1024.21ZM318.372 1043.57V1033.91H323.076C324.644 1033.91 325.428 1034.69 325.428 1036.26V1038.13C325.428 1039.7 324.644 1040.49 323.076 1040.49H320.388V1043.57H318.372ZM320.388 1038.67H322.992C323.272 1038.67 323.412 1038.53 323.412 1038.25V1036.15C323.412 1035.87 323.272 1035.73 322.992 1035.73H320.388V1038.67ZM327.299 1041.21V1036.26C327.299 1034.69 328.083 1033.91 329.651 1033.91H332.843C334.411 1033.91 335.195 1034.69 335.195 1036.26V1041.21C335.195 1042.78 334.411 1043.57 332.843 1043.57H329.651C328.083 1043.57 327.299 1042.78 327.299 1041.21ZM329.315 1041.33C329.315 1041.61 329.455 1041.75 329.735 1041.75H332.759C333.039 1041.75 333.179 1041.61 333.179 1041.33V1036.15C333.179 1035.87 333.039 1035.73 332.759 1035.73H329.735C329.455 1035.73 329.315 1035.87 329.315 1036.15V1041.33ZM336.735 1034.28L337.015 1033.91H338.667L340.221 1041.75H340.375L342.055 1034.83H344.015L345.695 1041.75H345.849L347.403 1033.91H349.055L349.335 1034.28L347.445 1043.57H344.239L343.035 1038.46L341.831 1043.57H338.625L336.735 1034.28ZM351.016 1043.57V1033.91H357.624V1035.73H353.032V1037.69H357.204V1039.51H353.032V1041.75H357.624V1043.57H351.016ZM359.605 1043.57V1033.91H364.309C365.877 1033.91 366.661 1034.69 366.661 1036.26V1037.85C366.661 1039.02 366.227 1039.75 365.359 1040.05L366.941 1043.15L366.703 1043.57H364.967L363.259 1040.21H361.621V1043.57H359.605ZM361.621 1038.39H364.225C364.505 1038.39 364.645 1038.25 364.645 1037.97V1036.15C364.645 1035.87 364.505 1035.73 364.225 1035.73H361.621V1038.39ZM321.588 1051.97V1050.68H322.764V1051.97H321.588ZM321.616 1060.57V1053.29H322.736V1060.57H321.616ZM325.12 1060.57V1053.29H329.04C330.44 1053.29 331.14 1053.99 331.14 1055.39V1060.57H330.02V1055.25C330.02 1054.59 329.693 1054.27 329.04 1054.27H326.24V1060.57H325.12ZM337.106 1060.57V1050.91H340.886C343.219 1050.91 344.386 1052.07 344.386 1054.41V1057.07C344.386 1059.4 343.219 1060.57 340.886 1060.57H337.106ZM338.282 1059.5H340.956C342.459 1059.5 343.21 1058.75 343.21 1057.25V1054.22C343.21 1052.72 342.459 1051.97 340.956 1051.97H338.282V1059.5ZM345.782 1060.31L348.946 1050.91H350.878L354.042 1060.31L353.874 1060.57H352.908L352.11 1058.13H347.714L346.916 1060.57H345.95L345.782 1060.31ZM348.064 1057.07H351.76L350.08 1051.97H349.744L348.064 1057.07ZM355.58 1058.42V1053.05C355.58 1051.62 356.294 1050.91 357.722 1050.91H360.998C362.426 1050.91 363.14 1051.62 363.14 1053.05V1058.42C363.14 1059.85 362.426 1060.57 360.998 1060.57H357.722C356.294 1060.57 355.58 1059.85 355.58 1058.42ZM356.756 1058.55C356.756 1059.19 357.073 1059.5 357.708 1059.5H361.012C361.647 1059.5 361.964 1059.19 361.964 1058.55V1052.92C361.964 1052.29 361.647 1051.97 361.012 1051.97H357.708C357.073 1051.97 356.756 1052.29 356.756 1052.92V1058.55Z" fill="white"/>
    <rect x="233.388" y="1006.25" width="217.983" height="65.8139" stroke="white" stroke-width="0.759988"/>
    <path d="M808.368 1034.72V1025.06H814.976V1026.88H810.384V1028.84H814.556V1030.66H810.384V1032.9H814.976V1034.72H808.368ZM818.693 1034.72C817.181 1034.72 816.425 1033.98 816.425 1032.5C816.425 1031.01 817.181 1030.27 818.693 1030.27H820.625V1029.46C820.625 1029.16 820.476 1029.01 820.177 1029.01H817.209V1027.96L818.049 1027.33H820.289C821.801 1027.33 822.557 1028.09 822.557 1029.6V1034.72H818.693ZM818.357 1032.59C818.357 1032.89 818.507 1033.04 818.805 1033.04H820.625V1031.78H818.805C818.507 1031.78 818.357 1031.93 818.357 1032.23V1032.59ZM824.599 1034.72V1028.28C824.944 1027.65 825.607 1027.33 826.587 1027.33H828.099L828.939 1027.96V1029.01H827.049C826.797 1029.01 826.624 1029.07 826.531 1029.19V1034.72H824.599ZM830.455 1034.72V1027.33H834.543C836.055 1027.33 836.811 1028.09 836.811 1029.6V1034.72H834.879V1029.46C834.879 1029.16 834.729 1029.01 834.431 1029.01H832.387V1034.72H830.455ZM842.131 1033.99V1032.9H846.471C846.751 1032.9 846.891 1032.76 846.891 1032.48V1031.46C846.891 1031.2 846.774 1031.04 846.541 1031L843.811 1030.45C842.691 1030.23 842.131 1029.48 842.131 1028.2V1027.41C842.131 1025.85 842.915 1025.06 844.483 1025.06H847.689L848.627 1025.79V1026.88H844.567C844.287 1026.88 844.147 1027.02 844.147 1027.3V1028.21C844.147 1028.47 844.263 1028.63 844.497 1028.67L847.227 1029.22C848.347 1029.44 848.907 1030.19 848.907 1031.47V1032.37C848.907 1033.94 848.123 1034.72 846.555 1034.72H843.069L842.131 1033.99ZM850.781 1034.72V1024.36H852.713V1027.33H854.869C856.381 1027.33 857.137 1028.09 857.137 1029.6V1034.72H855.205V1029.46C855.205 1029.16 855.056 1029.01 854.757 1029.01H852.713V1034.72H850.781ZM861.11 1034.72C859.598 1034.72 858.842 1033.98 858.842 1032.5C858.842 1031.01 859.598 1030.27 861.11 1030.27H863.042V1029.46C863.042 1029.16 862.892 1029.01 862.594 1029.01H859.626V1027.96L860.466 1027.33H862.706C864.218 1027.33 864.974 1028.09 864.974 1029.6V1034.72H861.11ZM860.774 1032.59C860.774 1032.89 860.923 1033.04 861.222 1033.04H863.042V1031.78H861.222C860.923 1031.78 860.774 1031.93 860.774 1032.23V1032.59ZM867.015 1034.72V1028.28C867.36 1027.65 868.023 1027.33 869.003 1027.33H870.515L871.355 1027.96V1029.01H869.465C869.213 1029.01 869.04 1029.07 868.947 1029.19V1034.72H867.015ZM872.759 1032.45V1029.6C872.759 1028.09 873.515 1027.33 875.027 1027.33H876.847C878.359 1027.33 879.115 1028.09 879.115 1029.6V1031.75H874.691V1032.59C874.691 1032.89 874.84 1033.04 875.139 1033.04H878.835V1034.09L877.995 1034.72H875.027C873.515 1034.72 872.759 1033.97 872.759 1032.45ZM874.691 1030.24H877.183V1029.46C877.183 1029.16 877.034 1029.01 876.735 1029.01H875.139C874.84 1029.01 874.691 1029.16 874.691 1029.46V1030.24ZM880.907 1034.09V1033.04H884.127C884.445 1033.04 884.603 1032.86 884.603 1032.51C884.603 1032.15 884.463 1031.94 884.183 1031.89L882.671 1031.64C881.495 1031.45 880.907 1030.76 880.907 1029.6C880.907 1028.09 881.663 1027.33 883.175 1027.33H885.345L886.185 1027.96V1029.01H883.301C882.984 1029.01 882.825 1029.19 882.825 1029.54C882.825 1029.91 882.965 1030.11 883.245 1030.16L884.757 1030.41C885.933 1030.61 886.521 1031.29 886.521 1032.45C886.521 1033.97 885.765 1034.72 884.253 1034.72H881.747L880.907 1034.09ZM891.912 1032.62V1029.54C891.912 1028.14 892.612 1027.44 894.012 1027.44H895.972C897.372 1027.44 898.072 1028.14 898.072 1029.54V1032.62C898.072 1034.02 897.372 1034.72 895.972 1034.72H894.012C892.612 1034.72 891.912 1034.02 891.912 1032.62ZM893.032 1032.76C893.032 1033.41 893.359 1033.74 894.012 1033.74H895.972C896.625 1033.74 896.952 1033.41 896.952 1032.76V1029.4C896.952 1028.75 896.625 1028.42 895.972 1028.42H894.012C893.359 1028.42 893.032 1028.75 893.032 1029.4V1032.76ZM900.34 1034.72V1026.46C900.34 1025.06 901.04 1024.36 902.44 1024.36H903.7L904.26 1024.78V1025.34H902.44C901.786 1025.34 901.46 1025.67 901.46 1026.32V1027.44H904.12V1028.42H901.46V1034.72H900.34ZM792.345 1049.62V1046.54C792.345 1045.14 793.045 1044.44 794.445 1044.44H796.265C797.665 1044.44 798.365 1045.14 798.365 1046.54V1048.56H793.465V1049.76C793.465 1050.41 793.792 1050.74 794.445 1050.74H798.085V1051.3L797.525 1051.72H794.445C793.045 1051.72 792.345 1051.02 792.345 1049.62ZM793.465 1047.58H797.245V1046.4C797.245 1045.75 796.918 1045.42 796.265 1045.42H794.445C793.792 1045.42 793.465 1045.75 793.465 1046.4V1047.58ZM800.524 1049.62V1046.54C800.524 1045.14 801.224 1044.44 802.624 1044.44H805.368L805.928 1044.86V1045.42H802.624C801.971 1045.42 801.644 1045.75 801.644 1046.4V1049.76C801.644 1050.41 801.971 1050.74 802.624 1050.74H805.928V1051.3L805.368 1051.72H802.624C801.224 1051.72 800.524 1051.02 800.524 1049.62ZM807.719 1049.62V1046.54C807.719 1045.14 808.419 1044.44 809.819 1044.44H811.779C813.179 1044.44 813.879 1045.14 813.879 1046.54V1049.62C813.879 1051.02 813.179 1051.72 811.779 1051.72H809.819C808.419 1051.72 807.719 1051.02 807.719 1049.62ZM808.839 1049.76C808.839 1050.41 809.165 1050.74 809.819 1050.74H811.779C812.432 1050.74 812.759 1050.41 812.759 1049.76V1046.4C812.759 1045.75 812.432 1045.42 811.779 1045.42H809.819C809.165 1045.42 808.839 1045.75 808.839 1046.4V1049.76ZM815.866 1051.3V1050.74H819.086C819.74 1050.74 820.066 1050.41 820.066 1049.76C820.066 1049.11 819.786 1048.73 819.226 1048.64L817.546 1048.36C816.426 1048.17 815.866 1047.56 815.866 1046.51C815.866 1045.13 816.566 1044.44 817.966 1044.44H820.29L820.85 1044.86V1045.42H817.966C817.313 1045.42 816.986 1045.75 816.986 1046.4C816.986 1046.96 817.266 1047.29 817.826 1047.38L819.506 1047.66C820.626 1047.85 821.186 1048.51 821.186 1049.65C821.186 1051.03 820.486 1051.72 819.086 1051.72H816.426L815.866 1051.3ZM822.446 1044.64L822.572 1044.44H823.538L825.666 1050.74H825.946L828.074 1044.44H829.04L829.166 1044.64L825.75 1054.52H824.784L824.658 1054.33L825.596 1051.72H824.896L822.446 1044.64ZM830.42 1051.3V1050.74H833.64C834.293 1050.74 834.62 1050.41 834.62 1049.76C834.62 1049.11 834.34 1048.73 833.78 1048.64L832.1 1048.36C830.98 1048.17 830.42 1047.56 830.42 1046.51C830.42 1045.13 831.12 1044.44 832.52 1044.44H834.844L835.404 1044.86V1045.42H832.52C831.867 1045.42 831.54 1045.75 831.54 1046.4C831.54 1046.96 831.82 1047.29 832.38 1047.38L834.06 1047.66C835.18 1047.85 835.74 1048.51 835.74 1049.65C835.74 1051.03 835.04 1051.72 833.64 1051.72H830.98L830.42 1051.3ZM837.784 1049.62V1042.06H838.904V1044.44H841.564V1045.42H838.904V1049.76C838.904 1050.41 839.231 1050.74 839.884 1050.74H841.704V1051.3L841.144 1051.72H839.884C838.484 1051.72 837.784 1051.02 837.784 1049.62ZM843.35 1049.62V1046.54C843.35 1045.14 844.05 1044.44 845.45 1044.44H847.27C848.67 1044.44 849.37 1045.14 849.37 1046.54V1048.56H844.47V1049.76C844.47 1050.41 844.797 1050.74 845.45 1050.74H849.09V1051.3L848.53 1051.72H845.45C844.05 1051.72 843.35 1051.02 843.35 1049.62ZM844.47 1047.58H848.25V1046.4C848.25 1045.75 847.924 1045.42 847.27 1045.42H845.45C844.797 1045.42 844.47 1045.75 844.47 1046.4V1047.58ZM851.641 1051.72V1044.44H859.901C861.301 1044.44 862.001 1045.14 862.001 1046.54V1051.72H860.881V1046.4C860.881 1045.75 860.555 1045.42 859.901 1045.42H857.381V1051.72H856.261V1045.42H852.761V1051.72H851.641ZM867.779 1051.72V1045.28C868.106 1044.72 868.713 1044.44 869.599 1044.44H870.999L871.559 1044.86V1045.42H869.599C869.282 1045.42 869.049 1045.51 868.899 1045.67V1051.72H867.779ZM873.072 1049.62V1046.54C873.072 1045.14 873.772 1044.44 875.172 1044.44H876.992C878.392 1044.44 879.092 1045.14 879.092 1046.54V1048.56H874.192V1049.76C874.192 1050.41 874.519 1050.74 875.172 1050.74H878.812V1051.3L878.252 1051.72H875.172C873.772 1051.72 873.072 1051.02 873.072 1049.62ZM874.192 1047.58H877.972V1046.4C877.972 1045.75 877.646 1045.42 876.992 1045.42H875.172C874.519 1045.42 874.192 1045.75 874.192 1046.4V1047.58ZM880.524 1044.64L880.65 1044.44H881.616L883.744 1050.74H884.024L886.152 1044.44H887.118L887.244 1044.64L884.794 1051.72H882.974L880.524 1044.64ZM888.665 1049.62V1046.54C888.665 1045.14 889.365 1044.44 890.765 1044.44H892.585C893.985 1044.44 894.685 1045.14 894.685 1046.54V1048.56H889.785V1049.76C889.785 1050.41 890.112 1050.74 890.765 1050.74H894.405V1051.3L893.845 1051.72H890.765C889.365 1051.72 888.665 1051.02 888.665 1049.62ZM889.785 1047.58H893.565V1046.4C893.565 1045.75 893.238 1045.42 892.585 1045.42H890.765C890.112 1045.42 889.785 1045.75 889.785 1046.4V1047.58ZM896.956 1051.72V1044.44H900.876C902.276 1044.44 902.976 1045.14 902.976 1046.54V1051.72H901.856V1046.4C901.856 1045.75 901.529 1045.42 900.876 1045.42H898.076V1051.72H896.956ZM905.243 1049.62V1044.44H906.363V1049.76C906.363 1050.41 906.69 1050.74 907.343 1050.74H910.143V1044.44H911.263V1051.72H907.343C905.943 1051.72 905.243 1051.02 905.243 1049.62ZM913.53 1049.62V1046.54C913.53 1045.14 914.23 1044.44 915.63 1044.44H917.45C918.85 1044.44 919.55 1045.14 919.55 1046.54V1048.56H914.65V1049.76C914.65 1050.41 914.977 1050.74 915.63 1050.74H919.27V1051.3L918.71 1051.72H915.63C914.23 1051.72 913.53 1051.02 913.53 1049.62ZM914.65 1047.58H918.43V1046.4C918.43 1045.75 918.104 1045.42 917.45 1045.42H915.63C914.977 1045.42 914.65 1045.75 914.65 1046.4V1047.58Z" fill="white"/>
    <rect x="746.958" y="1006.25" width="217.983" height="65.8139" stroke="white" stroke-width="0.759988"/>
    <path d="M537.793 1024.33V1017.02H539.809V1024.44C539.809 1024.72 539.949 1024.86 540.229 1024.86H542.973C543.253 1024.86 543.393 1024.72 543.393 1024.44V1017.02H545.409V1024.33C545.409 1025.9 544.625 1026.68 543.057 1026.68H540.145C538.577 1026.68 537.793 1025.9 537.793 1024.33ZM547.765 1026.68V1017.02H549.949L553.785 1023.36V1017.02H555.801V1026.68H553.617L549.781 1020.34V1026.68H547.765ZM558.241 1026.68V1017.02H560.257V1024.86H564.429V1026.68H558.241ZM565.911 1024.33V1019.37C565.911 1017.81 566.695 1017.02 568.263 1017.02H571.455C573.023 1017.02 573.807 1017.81 573.807 1019.37V1024.33C573.807 1025.9 573.023 1026.68 571.455 1026.68H568.263C566.695 1026.68 565.911 1025.9 565.911 1024.33ZM567.927 1024.44C567.927 1024.72 568.067 1024.86 568.347 1024.86H571.371C571.651 1024.86 571.791 1024.72 571.791 1024.44V1019.26C571.791 1018.98 571.651 1018.84 571.371 1018.84H568.347C568.067 1018.84 567.927 1018.98 567.927 1019.26V1024.44ZM575.963 1024.33V1019.37C575.963 1017.81 576.747 1017.02 578.315 1017.02H582.053L582.991 1017.75V1018.84H578.399C578.119 1018.84 577.979 1018.98 577.979 1019.26V1024.44C577.979 1024.72 578.119 1024.86 578.399 1024.86H582.991V1025.95L582.053 1026.68H578.315C576.747 1026.68 575.963 1025.9 575.963 1024.33ZM584.98 1026.68V1017.02H586.996V1020.84L590.412 1017.02H592.302L592.498 1017.43L589.292 1021L592.848 1026.28L592.652 1026.68H590.804L587.99 1022.45L586.996 1023.53V1026.68H584.98ZM598.029 1026.68V1017.02H602.733C604.301 1017.02 605.085 1017.81 605.085 1019.37V1020.97C605.085 1022.14 604.651 1022.87 603.783 1023.17L605.365 1026.26L605.127 1026.68H603.391L601.683 1023.32H600.045V1026.68H598.029ZM600.045 1021.5H602.649C602.929 1021.5 603.069 1021.36 603.069 1021.08V1019.26C603.069 1018.98 602.929 1018.84 602.649 1018.84H600.045V1021.5ZM607.247 1026.68V1017.02H613.855V1018.84H609.263V1020.8H613.435V1022.62H609.263V1024.86H613.855V1026.68H607.247ZM615.836 1026.68V1017.02H619.504C622.136 1017.02 623.452 1018.34 623.452 1020.97V1022.73C623.452 1025.37 622.136 1026.68 619.504 1026.68H615.836ZM617.852 1024.86H619.616C620.83 1024.86 621.436 1024.25 621.436 1023.04V1020.66C621.436 1019.45 620.83 1018.84 619.616 1018.84H617.852V1024.86ZM625.531 1024.33V1017.02H627.547V1024.44C627.547 1024.72 627.687 1024.86 627.967 1024.86H630.711C630.991 1024.86 631.131 1024.72 631.131 1024.44V1017.02H633.147V1024.33C633.147 1025.9 632.363 1026.68 630.795 1026.68H627.883C626.315 1026.68 625.531 1025.9 625.531 1024.33ZM635.363 1024.33V1019.37C635.363 1017.81 636.147 1017.02 637.715 1017.02H641.453L642.391 1017.75V1018.84H637.799C637.519 1018.84 637.379 1018.98 637.379 1019.26V1024.44C637.379 1024.72 637.519 1024.86 637.799 1024.86H642.391V1025.95L641.453 1026.68H637.715C636.147 1026.68 635.363 1025.9 635.363 1024.33ZM644.379 1026.68V1017.02H650.987V1018.84H646.395V1020.8H650.567V1022.62H646.395V1024.86H650.987V1026.68H644.379ZM652.969 1026.68V1017.02H656.637C659.269 1017.02 660.585 1018.34 660.585 1020.97V1022.73C660.585 1025.37 659.269 1026.68 656.637 1026.68H652.969ZM654.985 1024.86H656.749C657.962 1024.86 658.569 1024.25 658.569 1023.04V1020.66C658.569 1019.45 657.962 1018.84 656.749 1018.84H654.985V1024.86ZM583.45 1043.68V1034.02H590.058V1035.84H585.466V1038.22H589.638V1040.04H585.466V1043.68H583.45ZM591.766 1043.68V1034.02H598.374V1035.84H593.782V1037.8H597.954V1039.62H593.782V1041.86H598.374V1043.68H591.766ZM600.355 1043.68V1034.02H606.963V1035.84H602.371V1037.8H606.543V1039.62H602.371V1041.86H606.963V1043.68H600.355ZM608.524 1042.95V1041.86H612.864C613.144 1041.86 613.284 1041.72 613.284 1041.44V1040.42C613.284 1040.16 613.167 1040 612.934 1039.96L610.204 1039.41C609.084 1039.19 608.524 1038.44 608.524 1037.16V1036.37C608.524 1034.81 609.308 1034.02 610.876 1034.02H614.082L615.02 1034.75V1035.84H610.96C610.68 1035.84 610.54 1035.98 610.54 1036.26V1037.17C610.54 1037.43 610.657 1037.59 610.89 1037.63L613.62 1038.18C614.74 1038.4 615.3 1039.15 615.3 1040.43V1041.33C615.3 1042.9 614.516 1043.68 612.948 1043.68H609.462L608.524 1042.95ZM553.063 1058.58V1055.5C553.063 1054.1 553.763 1053.4 555.163 1053.4H557.123C558.523 1053.4 559.223 1054.1 559.223 1055.5V1058.58C559.223 1059.98 558.523 1060.68 557.123 1060.68H555.163C553.763 1060.68 553.063 1059.98 553.063 1058.58ZM554.183 1058.72C554.183 1059.37 554.51 1059.7 555.163 1059.7H557.123C557.777 1059.7 558.103 1059.37 558.103 1058.72V1055.36C558.103 1054.71 557.777 1054.38 557.123 1054.38H555.163C554.51 1054.38 554.183 1054.71 554.183 1055.36V1058.72ZM561.491 1060.68V1053.4H565.411C566.811 1053.4 567.511 1054.1 567.511 1055.5V1060.68H566.391V1055.36C566.391 1054.71 566.064 1054.38 565.411 1054.38H562.611V1060.68H561.491ZM573.338 1060.68V1052.42C573.338 1051.02 574.038 1050.32 575.438 1050.32H576.698L577.258 1050.74V1051.3H575.438C574.784 1051.3 574.458 1051.63 574.458 1052.28V1053.4H577.118V1054.38H574.458V1060.68H573.338ZM578.74 1060.68V1054.24C579.067 1053.68 579.673 1053.4 580.56 1053.4H581.96L582.52 1053.82V1054.38H580.56C580.243 1054.38 580.009 1054.47 579.86 1054.63V1060.68H578.74ZM585.73 1060.68C584.321 1060.68 583.616 1059.98 583.616 1058.57C583.616 1057.16 584.321 1056.45 585.73 1056.45H588.292V1055.36C588.292 1054.71 587.965 1054.38 587.312 1054.38H584.316V1053.82L584.876 1053.4H587.312C588.712 1053.4 589.412 1054.1 589.412 1055.5V1060.68H585.73ZM584.736 1058.72C584.736 1059.37 585.063 1059.7 585.716 1059.7H588.292V1057.43H585.716C585.063 1057.43 584.736 1057.76 584.736 1058.41V1058.72ZM591.736 1060.68V1050.32H592.856V1057.11L596.23 1053.4H597.322L597.42 1053.61L594.816 1056.45L597.616 1060.47L597.518 1060.68H596.426L594.074 1057.27L592.856 1058.58V1060.68H591.736ZM599.217 1058.58V1051.02H600.337V1053.4H602.997V1054.38H600.337V1058.72C600.337 1059.37 600.663 1059.7 601.317 1059.7H603.137V1060.26L602.577 1060.68H601.317C599.917 1060.68 599.217 1059.98 599.217 1058.58ZM604.867 1052.09V1050.8H606.043V1052.09H604.867ZM604.895 1060.68V1053.4H606.015V1060.68H604.895ZM608.286 1058.58V1055.5C608.286 1054.1 608.986 1053.4 610.386 1053.4H612.346C613.746 1053.4 614.446 1054.1 614.446 1055.5V1058.58C614.446 1059.98 613.746 1060.68 612.346 1060.68H610.386C608.986 1060.68 608.286 1059.98 608.286 1058.58ZM609.406 1058.72C609.406 1059.37 609.733 1059.7 610.386 1059.7H612.346C613 1059.7 613.326 1059.37 613.326 1058.72V1055.36C613.326 1054.71 613 1054.38 612.346 1054.38H610.386C609.733 1054.38 609.406 1054.71 609.406 1055.36V1058.72ZM616.714 1060.68V1053.4H620.634C622.034 1053.4 622.734 1054.1 622.734 1055.5V1060.68H621.614V1055.36C621.614 1054.71 621.287 1054.38 620.634 1054.38H617.834V1060.68H616.714ZM625.057 1060.68V1059.14H626.457V1060.68H625.057ZM630.556 1060.68C629.147 1060.68 628.442 1059.98 628.442 1058.57C628.442 1057.16 629.147 1056.45 630.556 1056.45H633.118V1055.36C633.118 1054.71 632.791 1054.38 632.138 1054.38H629.142V1053.82L629.702 1053.4H632.138C633.538 1053.4 634.238 1054.1 634.238 1055.5V1060.68H630.556ZM629.562 1058.72C629.562 1059.37 629.889 1059.7 630.542 1059.7H633.118V1057.43H630.542C629.889 1057.43 629.562 1057.76 629.562 1058.41V1058.72ZM636.506 1060.68V1054.24C636.832 1053.68 637.439 1053.4 638.326 1053.4H639.726L640.286 1053.82V1054.38H638.326C638.008 1054.38 637.775 1054.47 637.626 1054.63V1060.68H636.506ZM641.855 1058.58V1051.02H642.975V1053.4H645.635V1054.38H642.975V1058.72C642.975 1059.37 643.301 1059.7 643.955 1059.7H645.775V1060.26L645.215 1060.68H643.955C642.555 1060.68 641.855 1059.98 641.855 1058.58Z" fill="white"/>
    <rect x="490.173" y="1006.25" width="217.983" height="65.8139" stroke="white" stroke-width="0.759988"/>
    <path d="M594.885 934.544L597.155 929.789L591.664 929.789L593.934 934.544L594.885 934.544ZM594.409 1005.4L597.155 1000.64L591.664 1000.64L594.409 1005.4ZM593.934 934.069L593.934 1001.12L594.885 1001.12L594.885 934.069L593.934 934.069Z" fill="white"/>
    <path d="M594.885 547.465L597.155 542.71L591.664 542.71L593.934 547.465L594.885 547.465ZM594.409 618.319L597.155 613.564L591.664 613.564L594.409 618.319ZM593.934 546.99L593.934 614.039L594.885 614.039L594.885 546.99L593.934 546.99Z" fill="white"/>
    <path d="M177.299 601.675V601.2H177.775V601.675H177.299ZM177.299 1042.01V1042.49H176.824V1042.01H177.299ZM232.058 1042.01L227.302 1044.76V1039.27L232.058 1042.01ZM140.756 602.151L136.001 604.421V598.93L140.756 601.2V602.151ZM177.775 601.675V1042.01H176.824V601.675H177.775ZM177.299 1041.54H227.778V1042.49H177.299V1041.54ZM177.299 602.151H140.281V601.2H177.299V602.151Z" fill="white"/>
    <path d="M179.526 556.976V557.451H180.001V556.976H179.526ZM179.526 116.637V116.162H179.05V116.637H179.526ZM227.778 116.637L223.022 113.892V119.383L227.778 116.637ZM140.756 556.5L136.001 554.23V559.721L140.756 557.451V556.5ZM180.001 556.976V116.637H179.05V556.976H180.001ZM179.526 117.113H223.498V116.162H179.526V117.113ZM179.526 556.5H140.281V557.451H179.526V556.5Z" fill="white"/>
    <rect x="0.475527" y="546.039" width="60.8675" height="65.6228" fill="white" stroke="white" stroke-width="0.951055"/>
    <path d="M9.70733 574.291V564.631H14.2713C15.8393 564.631 16.6233 565.415 16.6233 566.983V567.823C16.6233 568.14 16.53 568.411 16.3433 568.635L15.8533 569.223L16.4413 569.713C16.7493 569.965 16.9033 570.338 16.9033 570.833V571.939C16.9033 573.507 16.1193 574.291 14.5513 574.291H9.70733ZM11.7233 572.471H14.4673C14.7473 572.471 14.8873 572.331 14.8873 572.051V570.651C14.8873 570.371 14.7473 570.231 14.4673 570.231H11.7233V572.471ZM11.7233 568.411H14.1873C14.4673 568.411 14.6073 568.271 14.6073 567.991V566.871C14.6073 566.591 14.4673 566.451 14.1873 566.451H11.7233V568.411ZM18.7561 571.939V564.631H20.7721V572.051C20.7721 572.331 20.9121 572.471 21.1921 572.471H23.9361C24.2161 572.471 24.3561 572.331 24.3561 572.051V564.631H26.3721V571.939C26.3721 573.507 25.5881 574.291 24.0201 574.291H21.1081C19.5401 574.291 18.7561 573.507 18.7561 571.939ZM27.6922 565.009L27.9302 564.631H29.6522L31.7522 568.733L33.8522 564.631H35.5742L35.8122 565.009L32.7602 570.875V574.291H30.7442V570.875L27.6922 565.009ZM40.2984 572.023V570.819C40.2984 570.333 40.4524 569.96 40.7604 569.699L41.3484 569.209L40.8584 568.621C40.6718 568.397 40.5784 568.126 40.5784 567.809V566.899C40.5784 565.387 41.3344 564.631 42.8464 564.631H45.3944L46.2344 565.261V566.311H42.9584C42.6598 566.311 42.5104 566.46 42.5104 566.759V567.963C42.5104 568.261 42.6598 568.411 42.9584 568.411H48.3344V570.091H46.9344V574.291H42.5664C41.0544 574.291 40.2984 573.535 40.2984 572.023ZM42.2304 572.163C42.2304 572.461 42.3798 572.611 42.6784 572.611H45.0024V570.091H42.6784C42.3798 570.091 42.2304 570.24 42.2304 570.539V572.163ZM9.28733 591.563V590.471H13.6273C13.9073 590.471 14.0473 590.331 14.0473 590.051V589.029C14.0473 588.767 13.9307 588.613 13.6973 588.567L10.9673 588.021C9.84733 587.797 9.28733 587.045 9.28733 585.767V584.983C9.28733 583.415 10.0713 582.631 11.6393 582.631H14.8453L15.7833 583.359V584.451H11.7233C11.4433 584.451 11.3033 584.591 11.3033 584.871V585.781C11.3033 586.042 11.42 586.196 11.6533 586.243L14.3833 586.789C15.5033 587.013 16.0633 587.764 16.0633 589.043V589.939C16.0633 591.507 15.2793 592.291 13.7113 592.291H10.2253L9.28733 591.563ZM17.1258 584.451V582.631H25.0218V584.451H22.0818V592.291H20.0658V584.451H17.1258ZM24.9168 591.913L27.7868 582.631H30.8668L33.7368 591.913L33.4848 592.291H31.8048L31.2168 590.331H27.4368L26.8488 592.291H25.1688L24.9168 591.913ZM27.9828 588.511H30.6708L29.4388 584.451H29.2148L27.9828 588.511ZM35.137 592.291V582.631H37.153V586.453L40.569 582.631H42.459L42.655 583.037L39.449 586.607L43.005 591.885L42.809 592.291H40.961L38.147 588.063L37.153 589.141V592.291H35.137ZM44.5433 592.291V582.631H51.1513V584.451H46.5593V586.411H50.7313V588.231H46.5593V590.471H51.1513V592.291H44.5433Z" fill="black"/>
    <rect x="62.4056" y="546.039" width="72.2802" height="65.6228" fill="black" stroke="white" stroke-width="0.951055"/>
    <path d="M76.0781 575V565.34H82.6861V567.16H78.0941V569.54H82.2661V571.36H78.0941V575H76.0781ZM84.3938 575V565.34H89.0978C90.6658 565.34 91.4498 566.124 91.4498 567.692V569.288C91.4498 570.455 91.0158 571.187 90.1478 571.486L91.7298 574.58L91.4918 575H89.7558L88.0478 571.64H86.4098V575H84.3938ZM86.4098 569.82H89.0138C89.2938 569.82 89.4338 569.68 89.4338 569.4V567.58C89.4338 567.3 89.2938 567.16 89.0138 567.16H86.4098V569.82ZM92.716 574.622L95.586 565.34H98.666L101.536 574.622L101.284 575H99.604L99.016 573.04H95.236L94.648 575H92.968L92.716 574.622ZM95.782 571.22H98.47L97.238 567.16H97.014L95.782 571.22ZM103.076 575V565.34H105.092V569.162L108.508 565.34H110.398L110.594 565.746L107.388 569.316L110.944 574.594L110.748 575H108.9L106.086 570.772L105.092 571.85V575H103.076ZM111.81 567.16V565.34H119.706V567.16H116.766V575H114.75V567.16H111.81ZM76.0781 592V582.34H78.2621L82.0981 588.682V582.34H84.1141V592H81.9301L78.0941 585.658V592H76.0781ZM86.554 592V582.34H93.162V584.16H88.57V586.54H92.742V588.36H88.57V592H86.554ZM94.0578 584.16V582.34H101.954V584.16H99.0138V592H96.9978V584.16H94.0578ZM102.629 591.37V590.32H105.849C106.167 590.32 106.325 590.143 106.325 589.788C106.325 589.424 106.185 589.219 105.905 589.172L104.393 588.92C103.217 588.724 102.629 588.043 102.629 586.876C102.629 585.364 103.385 584.608 104.897 584.608H107.067L107.907 585.238V586.288H105.023C104.706 586.288 104.547 586.465 104.547 586.82C104.547 587.184 104.687 587.389 104.967 587.436L106.479 587.688C107.655 587.884 108.243 588.565 108.243 589.732C108.243 591.244 107.487 592 105.975 592H103.469L102.629 591.37Z" fill="white"/>
    <path d="M140.756 580.276L136.001 578.006V583.497L140.756 581.227V580.276ZM233.009 580.752L228.253 578.006V583.497L233.009 580.752ZM140.281 581.227H228.729V580.276H140.281V581.227Z" fill="white"/>
</svg>
