<svg width="77" height="77" viewBox="0 0 77 77" fill="none" xmlns="http://www.w3.org/2000/svg">
    <path fill-rule="evenodd" clip-rule="evenodd" d="M37.074 -1.13463e-05H34.2222V2.85184H37.074V-1.13463e-05ZM11.4074 19.9629H14.2592V22.8148H11.4074V19.9629ZM62.7407 28.5185H65.5926V31.3704H62.7407V28.5185ZM5.70364 31.3704H8.55549V34.2222H5.70364V31.3704ZM68.4445 31.3704H65.5926V34.2222H68.4445V31.3704ZM3.8147e-06 34.2223H2.85186V37.0741H3.8147e-06V34.2223ZM65.5926 34.2223H62.7407V37.0741V37.0741V39.9259H65.5926V37.0741V34.2223ZM5.70364 37.0741H8.55549V39.9259H5.70364V37.0741ZM74.1481 37.0741H77V39.9259H74.1481V37.0741ZM2.85186 39.9259H3.8147e-06V42.7778H2.85186V39.9259ZM65.5926 39.9259H68.4445V42.7778H65.5926V39.9259ZM2.85186 45.6296H3.8147e-06V48.4815H2.85186V45.6296ZM62.7407 45.6296H65.5926V48.4815H62.7407V45.6296ZM68.4445 45.6296H65.5926V48.4815H68.4445V45.6296ZM8.55552 48.4815H11.4074V51.3333H8.55552V48.4815ZM8.55549 42.7777H5.70364V45.6296H8.55549V42.7777ZM2.85188 51.3333H5.70373V54.1852H2.85188V51.3333ZM62.7407 51.3333H59.8888V54.1852H62.7407V51.3333ZM62.7407 51.3333H65.5926V54.1852H62.7407V51.3333ZM14.2592 54.1852H11.4074V57.0371H14.2592V54.1852ZM2.85188 57.037H5.70373V59.8889H2.85188V57.037ZM57.0371 57.037H54.1852V59.8889H57.0371V57.037ZM59.8888 57.037H62.7407V59.8889H59.8888V57.037ZM68.4445 57.037H65.5926V59.8889H68.4445V57.037ZM8.55552 59.8889H11.4074V62.7407H8.55552V59.8889ZM22.8148 59.8889H19.9629V62.7407H22.8148V59.8889ZM39.9259 62.7407V59.8889L37.0741 59.8889V62.7408H34.2222V59.8889L31.3704 59.8889V57.0371H28.5186V59.8889L31.3704 59.8889V62.7408L28.5185 62.7407L28.5185 59.8889H25.6667V57.0371L17.1111 57.037L17.1111 48.4815H14.2592V42.7778H11.4074V39.9259H14.2592V37.0741H11.4074V34.2222H14.2592V28.5185H17.1111V25.6667H19.963V19.963H22.8148V22.8148H25.6667V17.1111H28.5185V19.963H31.3704V14.2593H34.2222V17.1111H37.0741V14.2593H39.9259V17.1111L37.0741 17.1111V19.963H39.926V17.1111L42.7778 17.1111V19.963H45.6296V11.4074L42.7778 11.4074V8.55557H45.6297V11.4074L48.4815 11.4074V17.1111H51.3333V19.963H54.1852V22.8148H59.8889V25.6667H57.037V28.5185L54.1852 28.5185V25.6667H51.3334V28.5185L54.1852 28.5185V31.3704L51.3334 31.3704V34.2222H54.1852V31.3704L59.8889 31.3704V34.2222H57.037V39.9259H59.8889V42.7778H57.037V45.6296H59.8889V48.4815H57.037V51.3333H54.1852V57.0371L48.4816 57.0371V54.1852H45.6297V57.0371L48.4815 57.0371V59.8889L51.3333 59.8889V62.7407H48.4815V59.8889L45.6297 59.8889V57.0371H42.7779V59.8889L45.6297 59.8889V62.7407V65.5926H42.7778V62.7407L42.7778 59.8889V62.7407H39.9259ZM17.1111 57.037V59.8889H14.2593V57.037H17.1111ZM28.5185 62.7407V65.5926H25.6667V62.7407H28.5185ZM57.0371 62.7407H54.1852V65.5926H57.0371V62.7407ZM31.3704 65.5926H34.2222H34.2223H37.074V68.4444V68.4445V71.2963H34.2222V68.4445H31.3704V65.5926ZM39.9259 65.5926H42.7778V68.4445H39.9259V65.5926ZM51.3333 65.5926H48.4815V68.4445H51.3333V65.5926ZM17.1112 68.4444H19.963V71.2963H17.1112V68.4444ZM65.5926 68.4444H62.7407V71.2963H65.5926V68.4444ZM22.8148 71.2963H25.6666V74.1482H22.8148V71.2963ZM45.6297 71.2963H42.7778V74.1482H45.6297V71.2963ZM28.5185 74.1481H31.3704V77H28.5185V74.1481ZM39.9259 74.1481H37.0741V77H39.9259V74.1481ZM51.3333 74.1481H54.1852V77H51.3333V74.1481ZM14.2593 62.7407H17.1111V65.5926H14.2593V62.7407ZM14.2592 68.4444H11.4074V71.2963H14.2592V68.4444ZM28.5185 68.4444H31.3704V71.2963H28.5185V68.4444ZM14.2593 2.85188H17.1111V5.70373H14.2593V2.85188ZM28.5185 2.85188H25.6667V5.70373H28.5185V2.85188ZM8.55552 5.70367H11.4074V8.55553H8.55552V5.70367ZM22.8148 5.70367H19.9629V8.55553H22.8148V5.70367ZM37.0741 5.70367H39.9259V8.55553H37.0741V5.70367ZM48.4815 5.70367H45.6297V8.55553H48.4815V5.70367ZM51.3333 5.70367H54.1852V8.55553H51.3333V5.70367ZM62.7407 5.70367H59.8888V8.55553H62.7407V5.70367ZM3.8147e-06 8.55557H2.85186V11.4074H3.8147e-06V8.55557ZM17.1111 8.55557H14.2593V11.4074H17.1111V8.55557ZM25.6667 8.55557H28.5185V11.4074H25.6667V8.55557ZM34.2223 8.55557H31.3704V11.4074H34.2223V8.55557ZM37.0741 8.55557H39.9259V11.4074H37.0741V8.55557ZM65.5926 8.55557H68.4445V11.4074H65.5926V8.55557ZM14.2592 11.4074H11.4074V14.2593V14.2593V17.1111H14.2592V14.2593V14.2593V11.4074ZM19.9629 11.4074H22.8148V14.2593H19.9629V11.4074ZM54.1852 11.4074H51.3333V14.2593H54.1852V11.4074ZM59.8888 11.4074H62.7407V14.2593V17.1111L59.8889 17.1111V19.9629H57.0371V17.1111L59.8888 17.1111V14.2593V11.4074ZM8.55549 17.1111H5.70364V19.9629H8.55549V17.1111ZM14.2593 17.1111H17.1111V19.9629H14.2593V17.1111ZM3.8147e-06 19.9629H2.85186V22.8148H3.8147e-06V19.9629ZM68.4445 19.9629H65.5926V22.8148H68.4445V19.9629ZM5.70364 22.8148H8.55549V25.6666H5.70364V22.8148ZM65.5926 22.8148H62.7407V25.6666H65.5926V22.8148ZM68.4445 22.8148H71.2963V25.6666H68.4445V22.8148ZM5.70364 25.6667H2.85188V28.5185H5.70364H5.70373H8.55549V25.6667H5.70373H5.70364ZM62.7407 25.6667H59.8888V28.5185H62.7407V25.6667ZM71.2963 25.6667V28.5185H68.4445V25.6667H71.2963ZM19.9631 31.3704H17.1112V34.2222H19.9631V31.3704ZM48.4815 28.5185H51.3334V31.3704H48.4815V28.5185ZM51.3334 22.8148L48.4816 22.8148V19.963H45.6297V22.8148L48.4815 22.8148V25.6666H51.3334V22.8148ZM54.1852 39.926H51.3334V42.7778H54.1852V39.926ZM51.3334 48.4815H54.1852V51.3333H51.3334V48.4815ZM51.3334 51.3333H48.4815V54.1852H51.3334V51.3333ZM22.8148 51.3333H19.963V54.1852H22.8148V51.3333ZM17.1112 45.6296H19.9631V48.4815H17.1112V45.6296ZM17.1112 39.926H14.2593V42.7778H17.1112V39.926Z" fill="white"/>
</svg>
