<svg width="60" height="60" viewBox="0 0 60 60" fill="none" xmlns="http://www.w3.org/2000/svg">
<path d="M44.531 15H15.47C6.926 15 0 21.716 0 30C0 38.284 6.926 45 15.469 45H44.53C53.074 45 60 38.284 60 30C60 21.716 53.074 15 44.531 15Z" fill="white"/>
<path d="M43.986 42.547C51.176 42.547 57.004 36.894 57.004 29.921C57.004 22.947 51.176 17.294 43.987 17.294C36.797 17.294 30.969 22.947 30.969 29.921C30.969 36.894 36.797 42.547 43.986 42.547V42.547ZM16.037 42.547C23.227 42.547 29.055 36.894 29.055 29.921C29.055 22.947 23.226 17.294 16.037 17.294C8.84704 17.294 3.01904 22.947 3.01904 29.921C3.01904 36.894 8.84704 42.547 16.037 42.547Z" fill="#4FBBEB" stroke="#010101" stroke-width="0.75" stroke-miterlimit="10"/>
<path d="M43.986 39.755C49.586 39.755 54.1259 35.352 54.1259 29.921C54.1259 24.49 49.586 20.087 43.986 20.087C38.387 20.087 33.8479 24.49 33.8479 29.921C33.8479 35.351 38.3879 39.755 43.9869 39.755H43.986ZM16.037 39.755C21.637 39.755 26.1759 35.352 26.1759 29.921C26.1759 24.49 21.6359 20.087 16.0359 20.087C10.4369 20.087 5.89795 24.49 5.89795 29.921C5.89795 35.351 10.438 39.755 16.037 39.755Z" fill="white" stroke="#010101" stroke-width="1.5" stroke-miterlimit="10"/>
<path d="M20.0151 35.231C21.7031 35.231 23.0731 33.221 23.0731 30.741C23.0731 28.261 21.7031 26.25 20.0151 26.25C18.3251 26.25 16.9561 28.26 16.9561 30.74C16.9561 33.22 18.3261 35.231 20.0151 35.231Z" fill="#010101"/>
<path d="M20.793 31.503C21.454 31.503 21.991 30.716 21.991 29.744C21.991 28.774 21.454 27.986 20.793 27.986C20.131 27.986 19.594 28.773 19.594 29.744C19.594 30.716 20.131 31.503 20.792 31.503H20.793Z" fill="white"/>
<path d="M47.964 35.231C49.653 35.231 51.022 33.221 51.022 30.741C51.022 28.261 49.652 26.25 47.964 26.25C46.275 26.25 44.906 28.26 44.906 30.74C44.906 33.22 46.276 35.231 47.964 35.231Z" fill="#010101"/>
<path d="M48.7419 31.503C49.4039 31.503 49.9399 30.716 49.9399 29.744C49.9399 28.774 49.4039 27.986 48.7419 27.986C48.0799 27.986 47.5439 28.773 47.5439 29.744C47.5439 30.716 48.0799 31.503 48.7419 31.503Z" fill="white"/>
</svg>
