<svg width="60" height="30" viewBox="0 0 60 30" fill="none" xmlns="http://www.w3.org/2000/svg"><path d="M44.531 0H15.47C6.926 0 0 6.716 0 15c0 8.284 6.926 15 15.469 15H44.53C53.074 30 60 23.284 60 15c0-8.284-6.926-15-15.469-15z" fill="#fff"/><path d="M43.986 27.547c7.19 0 13.018-5.653 13.018-12.626 0-6.974-5.828-12.627-13.017-12.627-7.19 0-13.018 5.653-13.018 12.627 0 6.973 5.828 12.626 13.017 12.626zM16.037 27.547c7.19 0 13.018-5.653 13.018-12.626 0-6.974-5.829-12.627-13.018-12.627-7.19 0-13.018 5.653-13.018 12.627 0 6.973 5.828 12.626 13.018 12.626z" fill="#4FBBEB" stroke="#010101" stroke-width=".75" stroke-miterlimit="10"/><path d="M43.986 24.755c5.6 0 10.14-4.403 10.14-9.834s-4.54-9.834-10.14-9.834c-5.599 0-10.138 4.403-10.138 9.834 0 5.43 4.54 9.834 10.139 9.834zM16.037 24.755c5.6 0 10.139-4.403 10.139-9.834s-4.54-9.834-10.14-9.834c-5.599 0-10.138 4.403-10.138 9.834 0 5.43 4.54 9.834 10.139 9.834z" fill="#fff" stroke="#010101" stroke-width="1.5" stroke-miterlimit="10"/><path d="M20.015 20.231c1.688 0 3.058-2.01 3.058-4.49 0-2.48-1.37-4.491-3.058-4.491-1.69 0-3.059 2.01-3.059 4.49 0 2.48 1.37 4.491 3.059 4.491z" fill="#010101"/><path d="M20.793 16.503c.661 0 1.198-.787 1.198-1.759 0-.97-.537-1.758-1.198-1.758-.662 0-1.199.787-1.199 1.758 0 .972.537 1.759 1.198 1.759z" fill="#fff"/><path d="M47.964 20.231c1.689 0 3.058-2.01 3.058-4.49 0-2.48-1.37-4.491-3.058-4.491-1.689 0-3.058 2.01-3.058 4.49 0 2.48 1.37 4.491 3.058 4.491z" fill="#010101"/><path d="M48.742 16.503c.662 0 1.198-.787 1.198-1.759 0-.97-.536-1.758-1.198-1.758-.662 0-1.198.787-1.198 1.758 0 .972.536 1.759 1.198 1.759z" fill="#fff"/></svg>